<svg version="1.2" xmlns="http://www.w3.org/2000/svg" viewBox="0 0 4000 4000" width="4000" height="4000">
	<title>69603285_10000_4-09-svg</title>
	<style>
		.s0 { fill: #ffe6f0 } 
		.s1 { fill: #ffffff } 
		.s2 { fill: #ff365d } 
		.s3 { fill: #000072 } 
		.s4 { fill: #d6214c } 
		.s5 { fill: #76768c } 
		.s6 { fill: #db214a } 
		.s7 { fill: #6b1a4e } 
		.s8 { fill: #67677a } 
		.s9 { fill: #d1cfe2 } 
		.s10 { fill: #c11643 } 
		.s11 { fill: #a51340 } 
		.s12 { fill: #656577 } 
		.s13 { fill: #555563 } 
		.s14 { fill: #d3d3e5 } 
		.s15 { fill: #e5cfde } 
	</style>
	<g id="Layer">
		<g id="Layer">
			<path id="Layer" class="s0" d="m0 0h4000v4000h-4000z"/>
		</g>
		<g id="Layer">
			<g id="Layer">
				<g id="Layer">
					<path id="Layer" class="s1" d="m1567.1 2732.9c-39.4 77.9-112 151.2-245.1 166.7-208.8 24.2-309.8-28.6-381.4-144.5-33.4-54-60.4-121.6-88.9-201.4-51.1-142.6-110.3-185.8-112.1-187.1q-0.1 0-0.1 0c0 0 115.2-245.5 369.7-61.7 69.5 50.1 123 91.2 168.5 123.7 27.4 19.7 52 36.4 75.2 50.1 35.3 20.7 67.6 34.8 103.1 42.6 44 9.8 92.8 9.9 157.9 1.6 0 0 4.5 108.9-46.8 210z"/>
				</g>
				<g id="Layer">
					<path id="Layer" class="s2" d="m1271.3 2470.5c-39.4 4.5-86.1-41.5-73.8-10.9 12.4 30.7 37.7 66.5 23.7 83.5-14.1 17.1-119.5-45.3-114.5-15.4 5 29.9 56 120.4 38.1 144.1-18 23.7-136.5-57.1-144.2-39.9-3.3 7.2 2.2 27.4 7.8 49.7 7.7 30.2 15.4 64.2 1.3 74.7-10.2 7.6-39.1 4.7-69.1-1.2-33.4-54-60.4-121.6-88.9-201.4-10.5-29.4-21.4-54.6-32.1-76.1-1.4-2.9-2.9-5.7-4.3-8.5q-1.2-2.4-2.4-4.6c-0.8-1.5-1.6-3-2.4-4.5q-2.4-4.4-4.7-8.5-1.2-2.1-2.4-4.1c-2.3-4.1-4.6-7.9-6.9-11.6-0.7-1.2-1.5-2.4-2.3-3.6-30-47.6-53.5-64.8-54.6-65.6q-0.1 0-0.1 0c0 0 115.2-245.5 369.7-61.7 69.5 50.1 123.1 91.2 168.5 123.7 0.5 2.4 1.1 4.7 1.5 6.9 3.9 20 2.6 33.9-7.9 35z"/>
				</g>
				<g id="Layer" style="opacity: .1">
					<path id="Layer" class="s3" d="m1567.1 2732.9c-39.4 77.9-112 151.2-245.1 166.7-208.8 24.2-309.8-28.6-381.4-144.5 30 5.9 58.9 8.8 69.1 1.2 14.1-10.5 6.4-44.5-1.3-74.7 61 88.5 137.2 142.9 248.6 131.6 168.8-17.2 216.4-212.6 122-304.8-13.2-12.9-21.6-22.6-26.1-29.7 35.3 20.7 67.6 34.8 103.1 42.6 26.3 54.5 76.9 160.7 81.1 179 1.8 7.8 16.1 18.5 30 32.6z"/>
				</g>
				<g id="Layer">
					<path id="Layer" class="s4" d="m1009.7 2756.3c-10.2 7.7-39.1 4.8-69.1-1.2-33.4-54-60.4-121.6-88.9-201.4-10.5-29.4-21.4-54.6-32.1-76.1-1.4-2.9-2.9-5.7-4.3-8.5q-1.2-2.4-2.4-4.6c-0.8-1.5-1.6-3-2.4-4.5q-2.4-4.4-4.7-8.5-1.2-2.1-2.4-4.1c-2.3-4.1-4.6-7.9-6.9-11.6-0.7-1.2-1.5-2.4-2.3-3.6-30-47.6-53.5-64.8-54.6-65.6 2.9-0.5 108-17.3 183.8 155.1 26.2 59.5 53.6 114.2 85 159.9 7.7 30.2 15.4 64.2 1.3 74.7z"/>
				</g>
				<g id="Layer" style="opacity: .5">
					<path id="Layer" class="s1" d="m1279.2 2435.5c-408.1-294.4-537.2-73.1-539.6-68.9q-0.1 0-0.1 0c0 0 115.2-245.5 369.7-61.7 69.5 50.1 123 91.2 168.5 123.7 0.5 2.4 1 4.7 1.5 6.9z"/>
				</g>
				<g id="Layer">
					<path id="Layer" class="s3" d="m1229.3 2915.7c-100.1 0-173.1-23.8-230.3-73.7-67.1-58.7-108.4-148.9-157.1-284.8-49.7-139.2-107.8-181.7-108.4-182.2-4-2.9-5.5-8.3-3.3-12.8 1.9-4.2 49.4-103.2 151.5-129.6 70.9-18.3 149.4 3.2 233.5 63.9 36.7 26.5 69.2 50.5 97.8 71.8 172.5 128 224.6 166.7 399.6 144.4 2.8-0.4 5.7 0.5 7.9 2.4 2.2 1.8 3.6 4.5 3.7 7.4 0.1 3.6 3.2 88.5-31.9 179.2-32.7 84.5-106 189.2-269.1 208.1-33.8 4-64.9 5.9-93.9 5.9zm-476.7-551.7c18 16 66.3 67.3 108.8 186.2 91.6 256.1 166.8 373.1 459.4 339.1 122.8-14.2 207.6-79.9 252.2-195.1 26.3-68 30.2-133.9 30.6-159.6-174.2 20-233.6-24.1-402.9-149.7-28.6-21.2-61-45.3-97.6-71.6-78.8-56.9-151.5-77.4-216-60.7-77.7 20-122 89-134.5 111.4z"/>
				</g>
			</g>
			<g id="Layer">
				<g id="Layer">
					<path id="Layer" class="s1" d="m2792.1 1470.8c-108.7 63.9-133.9 169.6-155.5 326-13.4 96.8-25.6 212.9-55.2 350.6-77.4 360-469.6 360.8-469.6 360.8 9.6-85 12.4-171.5 13.4-256.9 1.8-168.4-3.3-332.4 23.3-471.5 26.3-138.1 83.9-251.7 210.6-320.5 232.3-126.2 394-18.8 426.9 6.5 4 3.1 6.1 5 6.1 5z"/>
				</g>
				<g id="Layer">
					<path id="Layer" class="s2" d="m2792.1 1470.8q-1 0.6-2 1.2-2.3 1.4-4.5 2.8c-1.6 0.9-3.1 1.9-4.6 2.9-0.1 0.1-0.2 0.1-0.3 0.2-1.6 1-3.2 2-4.7 3.1q-4.7 3.2-9.1 6.5c-1.5 1.1-3 2.2-4.4 3.4q-2.2 1.6-4.3 3.3c-1.4 1.2-2.8 2.3-4.2 3.5-1.4 1.2-2.7 2.3-4.1 3.5-1.4 1.2-2.6 2.4-4 3.6-1.6 1.5-3.2 3-4.7 4.5-1 1-1.9 1.9-2.9 2.9q-5.6 5.6-10.7 11.5-1.8 1.9-3.4 4c-3.1 3.7-6 7.4-8.9 11.3q-1.2 1.6-2.3 3.2c-4.3 6-8.3 12.2-12.1 18.6-0.9 1.5-1.8 3-2.7 4.5-9.6 16.8-17.6 35-24.5 54.6-0.8 2.1-1.5 4.3-2.2 6.5q-0.9 2.5-1.6 5c-2.8 8.4-5.3 17.1-7.6 26q-2.2 8-4.1 16.3-1.9 7.8-3.6 15.6-2.6 12.1-5 24.8c-3.2 17.3-6.1 35.3-8.9 54.1q-2.1 14-4.1 28.6c-16.2 19.8-43.5 52.9-61 73.6-6.3 7.4-18 5.9-22.5-2.7-7.8-15.4-20.1-39.8-34.6-69.4-4.7-9.4-17.7-10.4-23.5-1.7-13.3 19.6-34.8 50.8-55.6 78.5-7.1 9.5-22.2 6.1-24.3-5.5-0.9-5.1-1.8-10.8-2.8-17-1.7-12.1-3.2-26.3-4-41.9-0.6-12.5-16.3-17.8-24.1-8-13.2 16.5-29.5 37.2-43.1 55.3-6.4 8.5-19.5 6.8-23.5-3-4-9.7-8.7-22.1-13-35.8-3.7-11.6-7-24.3-9.5-37-2.2-11.3-16.4-15.1-23.7-6.2-9.2 11.1-20.3 24.1-30.4 35.1-7.7 8.4-21.6 4.1-23.4-7.1-2.5-15-5.6-35.2-8.5-56.8-1.6-11.4-15.8-15.9-23.5-7.3-11 12.1-24.9 27.2-37.1 39.9 15.3-80.6 41.4-152.9 85.6-212.8 31.5-42.7 72.3-79.1 125-107.7 232.2-126.1 393.9-18.9 426.9 6.5 0.4 0.4 0.9 0.8 1.4 1.1 0 0 0.1 0.1 0.1 0.1 0.4 0.3 0.8 0.6 1.2 0.9q0.5 0.5 1 0.8 0.6 0.6 1 0.9c0.4 0.3 0.8 0.6 1 0.8 0.2 0.2 0.3 0.2 0.3 0.3 0.1 0 0.1 0.1 0.1 0.1z"/>
				</g>
				<g id="Layer" style="opacity: .1">
					<path id="Layer" class="s3" d="m2636.6 1796.8c-13.4 96.8-25.6 212.9-55.2 350.6-77.4 360-469.6 360.8-469.6 360.8 9.6-85 12.4-171.5 13.4-256.9 41.6 5.5 85.7-0.6 122.8-32 71.6-60.9 121.1-214.5 164.3-366.7 1 6.2 1.9 11.9 2.8 17 2.1 11.6 17.2 15 24.3 5.5 20.8-27.7 42.3-58.9 55.6-78.5 5.8-8.7 18.8-7.7 23.5 1.7 14.5 29.6 26.8 54 34.6 69.4 4.5 8.6 16.2 10.1 22.5 2.7 17.5-20.7 44.8-53.8 61-73.6z"/>
				</g>
				<g id="Layer">
					<path id="Layer" class="s4" d="m2792.1 1470.8q-1 0.6-2 1.2-2.3 1.4-4.5 2.8-2.4 1.5-4.9 3.1c-1.6 1-3.1 2-4.7 3.1q-4.7 3.2-9.1 6.5c-1.5 1.1-3 2.2-4.4 3.4q-2.2 1.6-4.3 3.3c-1.4 1.2-2.8 2.3-4.2 3.5-1.4 1.2-2.7 2.3-4.1 3.5-1.3 1.2-2.6 2.4-4 3.6-1.6 1.5-3.2 3-4.7 4.5-1 1-1.9 1.9-2.9 2.9q-5.6 5.6-10.7 11.5-1.8 1.9-3.4 4c-3.1 3.7-6 7.4-8.9 11.3q-1.2 1.6-2.3 3.2c-4.3 6-8.3 12.2-12.1 18.6q-1.4 2.2-2.7 4.5c-9.6 16.8-17.6 35-24.5 54.6q-1.1 3.2-2.2 6.5-0.8 2.5-1.6 5c-2.8 8.4-5.3 17.1-7.6 26q-2.2 8-4.1 16.3-1.9 7.8-3.6 15.6-2.6 12.1-5 24.8c-3.2 17.3-6.1 35.3-8.9 54.1q-2.1 14-4.1 28.6c-16.1 19.8-43.5 52.9-61 73.6-6.3 7.4-18 5.9-22.5-2.7-7.8-15.4-20.1-39.8-34.6-69.4-4.7-9.4-17.7-10.4-23.5-1.7-13.3 19.6-34.8 50.8-55.6 78.5-7.1 9.5-22.2 6.1-24.3-5.5-0.9-5.1-1.8-10.8-2.8-17 20.5-72 39.5-143.7 58.8-205.1 42.8-136.5 190.9-185.4 314.9-181.7 0.4 0.4 0.9 0.8 1.4 1.1 0 0 0.1 0.1 0.1 0.1 0.4 0.3 0.8 0.6 1.2 0.9q0.5 0.5 1 0.8 0.6 0.6 1 0.9c0.4 0.3 0.8 0.6 1 0.8 0.2 0.2 0.3 0.2 0.4 0.3 0 0 0 0.1 0 0.1z"/>
				</g>
				<g id="Layer" style="opacity: .5">
					<path id="Layer" class="s1" d="m2792.1 1470.8q-1 0.6-2 1.2-2.3 1.4-4.5 2.8c-1.6 0.9-3.1 1.9-4.6 2.9-346.6-144.6-558.7 117.9-558.7 117.9 0 0 4.1-10.9 11.8-28.6 31.5-42.7 72.3-79.1 125-107.7 232.3-126.1 393.9-18.9 426.9 6.5 0.4 0.4 0.9 0.8 1.4 1.1 0 0 0.1 0.1 0.1 0.1 0.4 0.3 0.8 0.6 1.2 0.9q0.5 0.5 1 0.8 0.6 0.6 1 0.9c0.4 0.3 0.8 0.6 1 0.8 0.2 0.2 0.3 0.3 0.4 0.3 0 0 0 0.1 0 0.1z"/>
				</g>
				<g id="Layer">
					<path id="Layer" class="s3" d="m2111.8 2518.3c-2.9 0-5.6-1.2-7.5-3.4-2-2.1-2.9-5-2.6-7.9 13-114.6 13.4-232.4 13.8-346.3 1.1-299.2 2.2-581.8 238.8-710.3 137.9-74.9 251.2-67.7 322-48.4 77 21.1 120.8 59.6 122.6 61.2 2.5 2.2 3.7 5.4 3.4 8.6-0.3 3.3-2.2 6.1-5 7.8-118.5 69.6-134.6 193.8-159.1 381.7-11 83.9-23.3 178.9-46.9 288.2-40.9 190.3-169.3 280.5-269.8 322.6-108.3 45.5-205.6 46.2-209.7 46.2q0 0 0 0zm466.3-1108.9c-59.4 0-132.1 14.2-214.1 58.8-102.9 55.9-165.9 144.4-198 278.4-29.1 120.8-29.6 263.3-30.2 414.2-0.4 110.6-0.8 224.8-12.6 336.8 28.7-1.6 107.4-9.2 191.1-44.5 139.3-58.6 225.8-162.2 257.2-307.8 23.3-108.5 35.6-203.1 46.5-286.6 24.4-187.3 40.8-313.2 156.4-388.8-17-12.2-53.2-34.7-104.5-48.5-25.2-6.8-56.1-12-91.8-12z"/>
				</g>
			</g>
			<g id="Layer">
				<g id="Layer">
					<path id="Layer" class="s1" d="m861.5 1804.4c122.2 31.2 175.7 125.7 240 270 39.8 89.3 83.7 197.4 150.4 321.5 174.4 324.3 551.3 216.1 551.3 216.1-32.9-79-59.5-161.4-84.2-243.1-48.6-161.2-89.2-320.2-153.4-446.5-63.6-125.3-150.5-218.4-291.4-249.3-258.2-56.7-383.7 91.4-408.2 124.8-3 4.1-4.5 6.5-4.5 6.5z"/>
				</g>
				<g id="Layer">
					<path id="Layer" class="s2" d="m861.5 1804.4q1.1 0.3 2.2 0.6 2.6 0.7 5.1 1.4c1.8 0.5 3.6 1 5.3 1.6 0.1 0 0.2 0 0.3 0 1.8 0.6 3.6 1.1 5.4 1.7q5.4 1.8 10.6 3.8c1.7 0.6 3.4 1.3 5.2 1.9q2.5 1 5 2.1c1.7 0.7 3.3 1.4 5 2.2 1.6 0.7 3.3 1.4 4.9 2.2 1.6 0.8 3.2 1.5 4.8 2.4 2 0.9 3.9 1.9 5.8 3 1.2 0.6 2.4 1.2 3.6 1.9q6.9 3.8 13.5 8.1 2.2 1.3 4.3 2.9c4 2.7 7.9 5.4 11.7 8.4q1.7 1.2 3.2 2.4c5.7 4.6 11.3 9.4 16.7 14.5 1.3 1.2 2.6 2.4 3.9 3.6 13.8 13.5 26.6 28.8 38.6 45.6 1.4 1.9 2.7 3.7 4 5.7q1.5 2.1 3 4.3c4.9 7.3 9.8 15 14.5 22.9q4.3 7.1 8.5 14.5 3.9 6.9 7.7 14.1 5.8 10.8 11.6 22.4c8 15.6 15.8 32.2 23.7 49.5q5.9 12.8 11.9 26.3c20.9 14.5 56.4 38.8 79 53.7 8.1 5.3 18.9 0.7 20.8-8.8 3.3-17 8.4-43.8 14.1-76.3 1.8-10.3 14-14.8 22.1-8.2 18.2 15.2 47.5 39.2 75.2 60.1 9.4 7.1 22.9-0.4 21.7-12.1-0.5-5.1-1.2-10.9-2-17.1-1.7-12.1-4.2-26.2-7.8-41.4-2.9-12.2 10.8-21.6 21-14.3 17.2 12.1 38.6 27.4 56.8 41.1 8.4 6.4 20.5 1.1 21.7-9.4 1.1-10.5 2.2-23.7 2.5-38 0.3-12.2 0-25.4-1.1-38.2-1.1-11.5 11.5-19.1 21-12.6 12 8.2 26.2 17.6 39 25.4 9.7 5.8 21.9-2.1 20.5-13.4-1.8-15.1-4.5-35.3-7.7-56.9-1.6-11.4 10.8-19.7 20.6-13.6 14 8.6 31.5 19.3 46.7 28-37.1-73.1-82.2-135.3-141.3-180.5-42.1-32.3-91.5-56-150.1-68.8-258.1-56.7-383.5 91.3-408.2 124.8-0.3 0.5-0.7 1-1 1.5-0.1 0-0.1 0-0.1 0-0.4 0.5-0.6 0.9-0.9 1.3q-0.4 0.6-0.8 1.1-0.4 0.6-0.7 1c-0.3 0.4-0.6 0.8-0.7 1.1-0.1 0.2-0.2 0.3-0.3 0.4 0 0.1 0 0.1 0 0.1z"/>
				</g>
				<g id="Layer" style="opacity: .1">
					<path id="Layer" class="s3" d="m1101.5 2074.4c39.8 89.3 83.7 197.4 150.4 321.5 174.4 324.3 551.3 216.1 551.3 216.1-32.9-79-59.5-161.4-84.2-243.1-38.5 16.9-82.5 23.3-126.8 3.4-85.7-38.6-176-172.4-259.8-306.6 0.8 6.2 1.5 12 2 17.1 1.2 11.7-12.3 19.2-21.7 12.1-27.7-20.9-57-44.9-75.2-60.1-8.1-6.6-20.3-2.1-22.1 8.2-5.7 32.5-10.8 59.3-14.1 76.3-1.9 9.5-12.7 14.1-20.8 8.8-22.6-14.9-58-39.2-79-53.7z"/>
				</g>
				<g id="Layer">
					<path id="Layer" class="s4" d="m861.5 1804.4q1.1 0.3 2.2 0.6 2.6 0.7 5.1 1.4 2.8 0.8 5.6 1.6c1.8 0.6 3.6 1.1 5.4 1.7q5.4 1.8 10.6 3.8c1.7 0.6 3.4 1.2 5.2 1.9q2.5 1 5 2.1c1.7 0.7 3.3 1.4 5 2.2 1.6 0.7 3.3 1.4 4.9 2.2 1.6 0.7 3.2 1.5 4.8 2.4 2 0.9 3.9 1.9 5.8 3 1.2 0.6 2.4 1.2 3.6 1.9q6.9 3.8 13.5 8.1 2.2 1.3 4.3 2.9c4 2.7 7.9 5.4 11.7 8.4q1.6 1.2 3.2 2.4c5.7 4.6 11.3 9.4 16.7 14.5q2 1.8 3.9 3.6c13.8 13.5 26.6 28.8 38.6 45.6q2.1 2.8 4 5.7 1.5 2.1 3 4.3c4.9 7.3 9.8 15 14.5 22.9q4.3 7.1 8.5 14.5 3.9 6.9 7.7 14.1 5.8 10.8 11.6 22.4c8 15.6 15.8 32.2 23.7 49.5q5.9 12.8 11.9 26.3c20.9 14.5 56.4 38.8 79 53.7 8.1 5.3 18.9 0.7 20.8-8.8 3.3-17 8.4-43.8 14.1-76.3 1.8-10.3 14-14.8 22.1-8.2 18.2 15.2 47.5 39.2 75.2 60.1 9.4 7.1 22.9-0.4 21.7-12.1-0.5-5.1-1.2-10.9-2-17.1-39.7-63.5-77.9-127.1-113.4-180.8-79.1-119.2-235-124.9-353-87-0.3 0.5-0.7 1-1 1.5-0.1 0-0.1 0-0.1 0-0.3 0.5-0.6 0.9-0.9 1.3q-0.4 0.6-0.8 1.1-0.4 0.6-0.7 1c-0.3 0.5-0.5 0.9-0.7 1.1-0.1 0.2-0.2 0.3-0.3 0.4 0 0.1 0 0.1 0 0.1z"/>
				</g>
				<g id="Layer" style="opacity: .5">
					<path id="Layer" class="s1" d="m861.5 1804.4q1.1 0.3 2.2 0.6 2.6 0.7 5.1 1.4c1.8 0.5 3.6 1 5.3 1.6 292.8-235.2 569.4-42 569.4-42 0 0-6.9-9.3-19.2-24.2-42.1-32.2-91.5-55.9-150.1-68.7-258.1-56.7-383.5 91.2-408.2 124.8-0.3 0.5-0.7 1-1 1.5-0.1 0-0.1 0-0.1 0-0.3 0.5-0.6 0.9-0.9 1.3q-0.4 0.6-0.8 1-0.4 0.7-0.7 1.1c-0.3 0.4-0.6 0.8-0.7 1.1-0.1 0.2-0.2 0.3-0.3 0.4 0 0.1 0 0.1 0 0.1z"/>
				</g>
				<g id="Layer">
					<path id="Layer" class="s3" d="m1659.8 2639.5c-21.4 0-44.2-1.1-68-3.9-108.3-12.6-256.7-63.6-348.9-235-52.9-98.4-91.2-186.3-125-263.8-75.8-173.8-125.8-288.6-259-322.5-3.1-0.8-5.7-3.1-6.9-6.1-1.2-3-0.9-6.4 0.8-9.2 1.3-2 32.7-51.2 100.9-92.8 62.6-38.2 169.5-76.7 322.7-43 263 57.7 342.5 328.9 426.7 616 32.1 109.3 65.2 222.3 109.5 328.9 1.1 2.7 1 5.7-0.3 8.3-1.2 2.6-3.5 4.5-6.3 5.3-3.1 0.9-63.1 17.8-146.2 17.8zm-781.5-840.9c132 40.5 182.7 156.9 258.2 330.1 33.6 77.2 71.8 164.6 124.3 262.3 70.6 131.2 182.5 206.7 332.6 224.4 90.2 10.6 167.9-4 195.9-10.4-42.4-104.4-74.6-213.9-105.7-320.1-42.4-144.7-82.5-281.5-144-389.5-68.1-119.8-153.1-187.3-267.5-212.4-146.2-32.1-247.6 4-306.9 40-45.5 27.5-74 59.2-86.9 75.6z"/>
				</g>
			</g>
			<g id="Layer">
				<g id="Layer">
					<path id="Layer" class="s1" d="m3242.3 1901.4c0 0-109.3-21.6-145.6 138-7.3 32-14.7 83-28.6 141.5-52.9 223.4-199.7 557.2-790.2 369.8-25.7-8.2-52.2-17.3-79.7-27.5l-9.7-106.7c0 0 38.6-3.2 86.1-29.1q0.4-0.3 0.8-0.5c44.7-24.5 97.3-69.3 133.3-150.5 30.9-69.7 71.7-193.7 132.1-311.3 85.1-166 209-319.8 398.8-292.3 284.4 41.2 302.8 216.5 303 259.2 0.1 6-0.3 9.4-0.3 9.4z"/>
				</g>
				<g id="Layer">
					<path id="Layer" class="s2" d="m3242.6 1892c0.1 5.1-0.2 8.4-0.3 9.2q0 0.2 0 0.2c0 0-109.3-21.6-145.6 138-7.3 32-14.7 83-28.6 141.5-5.2-1.2-9.7-5.3-10.9-11.4-4-22.8-10.8-50.1-16.3-71-3.2-12.1-19.4-14.6-26.1-4-19.1 29.8-37.6 49.4-50.4 61.1-7.9 7.1-20.6 3.6-23.6-6.6-12-40.5-22.2-87.4-28.6-119.7q-0.4-1.7-1.1-3.2c-4.5-10-19.2-11.6-25.5-1.3-32.1 52.8-64.4 85.4-84.4 102.5-8.8 7.6-22.5 2.2-23.7-9.3-4.9-46-2.8-101.5-0.4-139.3 1-13.4-15.3-20.7-24.7-11-26.7 27.6-52.8 46.5-69.1 57.2-8.4 5.5-19.8 0.8-21.9-8.9-8.9-39.8-6.2-86.7-3-115.5 1.3-11.8-11.4-20-21.6-14-26.9 15.8-54 37.2-68.7 49.4-6.3 5.3-15.6 4.2-20.6-2.2-2-2.5-4.2-5.4-6.7-8.6 3.3-6.4 6.6-12.8 10-19.1 84.7-158.5 206.3-299.6 388.8-273.2 284.4 41.2 302.8 216.5 303 259.2z"/>
				</g>
				<g id="Layer" style="opacity: .1">
					<path id="Layer" class="s3" d="m3068.1 2180.9c-52.9 223.4-199.7 557.2-790.2 369.8-4.1-74.5-3.5-145.2-3.3-163.3 0.1-2.9 0.1-4.5 0.1-4.5 0 0 0.2 1.4 0.7 4 4.9 25.1 45.3 157.4 338.4 93.6 242.8-52.8 250.4-289.1 297.3-454.4q0.7 1.5 1.1 3.2c6.4 32.3 16.6 79.2 28.6 119.7 3 10.2 15.7 13.7 23.6 6.6 12.8-11.7 31.3-31.3 50.4-61.1 6.7-10.6 22.9-8.1 26.1 4 5.5 20.9 12.3 48.2 16.3 71 1.2 6.1 5.7 10.2 10.9 11.4z"/>
				</g>
				<g id="Layer">
					<path id="Layer" class="s4" d="m3242.3 1901.4c0 0-109.3-21.6-145.6 138-7.3 32-14.7 83-28.6 141.5-5.2-1.2-9.7-5.3-10.9-11.4-4-22.8-10.8-50.1-16.3-71-3.2-12.1-19.4-14.6-26.1-4-19.1 29.8-37.6 49.4-50.4 61.1-7.9 7.1-20.6 3.6-23.6-6.6-12-40.5-22.2-87.4-28.6-119.7q-0.4-1.7-1.1-3.2c15.5-54.6 35.3-101.5 69.3-131.5 90.4-79.7 191.7-76.1 262.2-2.6 0.1 6-0.3 9.4-0.3 9.4z"/>
				</g>
				<g id="Layer" style="opacity: .5">
					<path id="Layer" class="s1" d="m3242.6 1892c0.1 5.1-0.2 8.4-0.3 9.2-14.8-115.1-228.3-285.9-438.9-219.9-153.2 47.9-216.4 161.7-252.6 224.7 84.7-158.5 206.3-299.6 388.8-273.2 284.4 41.2 302.8 216.5 303 259.2z"/>
				</g>
				<g id="Layer">
					<path id="Layer" class="s3" d="m2588.7 2615.7c-113.6 0-245.3-27.7-394-83-3.7-1.4-6.2-4.7-6.6-8.6l-9.7-106.7c-0.3-2.7 0.6-5.4 2.3-7.4 1.8-2.1 4.2-3.4 6.9-3.6 5.8-0.5 140.7-13.9 211.8-174.1 10.4-23.4 21.8-52.6 34.9-86.5 82.2-211.2 219.9-564.6 506.8-523 171.6 24.8 247.2 99 280.4 156.9 36.3 63.3 31.2 120.3 31 122.7-0.3 2.9-1.8 5.5-4.1 7.2-2.2 1.7-5.2 2.3-8 1.8-4-0.8-100.3-17.2-133.8 130.3-2.9 12.6-5.8 28.2-9.1 46.3-23.2 125.3-66.5 358.6-260.2 468.5-69.6 39.4-152.7 59.2-248.6 59.2zm-381-99.8c265.7 97.7 474 105.4 619.6 22.9 185.5-105.2 227.6-332.5 250.2-454.5 3.4-18.3 6.3-34.1 9.3-47.1 30.8-135.7 114.6-147.3 145.7-146.7-0.4-18.2-4.2-58.7-29.2-101.7-44.6-76.8-136.3-127.2-265.2-145.9-271-39.3-404.8 304.7-484.8 510.3-13.3 34.1-24.8 63.5-35.3 87.3-65.6 147.8-183.1 178.7-218.5 184.8z"/>
				</g>
			</g>
			<g id="Layer">
				<g id="Layer">
					<path id="Layer" class="s1" d="m3183.5 2715.6c-39.2 106.9-144.2 194.4-266 246.1-117.4 49.8-250.3 66.5-355.5 35.3-214.3-63.3-317.9-364.3-317.9-364.3 0 0 105.5-64.7 291.7-98.4 67.2-12.2 144.9-20.4 231.9-20 28.8 0.1 58.7 1.2 89.6 3.3 222.7 15.7 189.6-151.2 189.6-151.2q0.2 0.2 0.5 0.3c10.6 7.2 211.2 144.5 136.1 348.9z"/>
				</g>
				<g id="Layer">
					<path id="Layer" class="s2" d="m3183.5 2715.6c-39.2 106.9-144.2 194.4-266 246.1-6.3-0.3-12-0.7-16.9-1.1-8.1-0.6-12.4-10-7.6-16.5 9.8-13.5 20.7-30.7 28.8-44.1 4.6-7.8-2.2-17.4-11.1-15.6-25 5-44.5 5.1-57 4.3-2.5-0.2-4.6-1.2-6.3-2.7 0 0 0 0-0.1 0-3.4-3.2-4.5-8.4-2-12.9 15.1-26.5 34.5-55.4 48-74.8 5.5-7.9-1.6-18.2-10.9-16.2-43.6 9.8-76.7 9.2-95.7 7.4-8.3-0.8-12.4-10.7-7-17.1 21.5-25.6 51.5-52.2 72.5-69.9 7.4-6.2 3-18.4-6.7-18.4-27.7-0.1-50.8-4.2-64.4-7.4-7.1-1.6-10.4-9.9-6.4-15.9 16.4-24.6 42.2-46.6 58.7-59.4 6.8-5.2 4.7-15.9-3.5-18.2-21.7-6.2-46.4-9.6-60.2-11.1-5.8-0.6-10-6-9.1-11.9 1.6-10.4 4.1-27.2 7.1-45.9 28.8 0.1 58.7 1.2 89.6 3.3 222.7 15.7 189.6-151.2 189.6-151.2q0 0 0.5 0.3c0.9 0.7 3.5 2.4 7.4 5.3 0.5 0.4 1.1 0.8 1.7 1.3 9.4 6.9 24.9 19.3 42.3 36.4 1.1 1.1 2.3 2.2 3.5 3.4q1.7 1.7 3.4 3.6c8.6 8.7 17.3 18.5 26 29.2 2 2.5 3.9 5 5.9 7.5 8 10.6 15.8 21.9 23 34.1 0.7 1.2 1.5 2.6 2.3 3.9 3.3 5.7 6.5 11.6 9.4 17.7q1.1 2.2 2.2 4.5c0.6 1.3 1.2 2.6 1.8 3.9q1.4 2.9 2.6 6c0.9 1.9 1.8 4 2.5 6 1.8 4.4 3.4 8.8 5 13.2q0.8 2.3 1.5 4.6c3.1 9.7 5.7 19.6 7.8 29.9 0.3 1.9 0.7 3.8 1 5.7 1.5 8.8 2.6 17.8 3.1 27q0.2 2.7 0.3 5.5c1.2 31.1-3.5 64.6-16.6 100.2z"/>
				</g>
				<g id="Layer" style="opacity: .1">
					<path id="Layer" class="s3" d="m2893 2944.1c-4.8 6.5-0.5 15.9 7.6 16.5 4.9 0.4 10.6 0.8 16.9 1.1-117.4 49.8-250.3 66.5-355.5 35.3-214.3-63.3-317.9-364.3-317.9-364.3 0 0 105.5-64.7 291.7-98.4 4 5.6 6.3 9.1 6.3 9.1 0 0-105.5 25.2-51.2 209.4 37.8 128.3 201.5 162.7 356.4 133.2 0.1 0 0.1 0 0.1 0 1.7 1.5 3.8 2.5 6.3 2.7 12.5 0.8 32 0.7 57-4.3 8.9-1.8 15.7 7.8 11.1 15.6-8.2 13.4-19 30.6-28.8 44.1z"/>
				</g>
				<g id="Layer">
					<path id="Layer" class="s4" d="m3183.5 2715.6c-39.2 106.9-144.2 194.4-266 246.1-6.3-0.3-12-0.7-16.9-1.1-8.1-0.6-12.4-10-7.6-16.5 9.8-13.5 20.7-30.7 28.8-44.1 4.6-7.8-2.2-17.4-11.1-15.6-25 5-44.5 5.1-57 4.3-2.5-0.2-4.6-1.2-6.3-2.7 67.7-12.9 133.7-38 186.9-72.8 174.8-114.6 152.6-343 13.1-446.5 0.9 0.7 3.5 2.4 7.4 5.3 0.5 0.4 1.1 0.8 1.7 1.3 9.4 6.9 24.9 19.3 42.3 36.4 1.1 1.1 2.3 2.2 3.5 3.4q1.7 1.7 3.4 3.6c8.6 8.7 17.3 18.5 26 29.2q3 3.7 5.9 7.5c8 10.6 15.8 21.9 23 34.1 0.7 1.2 1.5 2.6 2.3 3.9 3.3 5.7 6.5 11.6 9.4 17.7q1.1 2.2 2.2 4.5c0.6 1.3 1.2 2.6 1.8 3.9q1.4 2.9 2.6 6c0.9 1.9 1.8 4 2.5 6 1.8 4.4 3.4 8.8 5 13.3q0.8 2.2 1.5 4.5c3.1 9.7 5.7 19.6 7.8 29.9 0.3 1.9 0.7 3.8 1 5.7 1.5 8.8 2.6 17.8 3.1 27q0.2 2.7 0.3 5.5c1.2 31.1-3.5 64.6-16.6 100.2z"/>
				</g>
				<g id="Layer">
					<path id="Layer" class="s3" d="m2678.5 3023.4c-42.6 0-83-5.3-119.5-16.1-217.1-64.2-320.7-358.6-325-371.1-1.6-4.7 0.3-10 4.6-12.6 2.3-1.4 238.5-143.3 619.4-116.6 72.6 5.1 124.3-9 153.4-41.9 35.5-40.2 25.2-96.1 25-96.6-0.8-4.2 1-8.5 4.6-10.9 3.5-2.4 8.2-2.5 11.8-0.1 2.2 1.4 55.6 36.6 100 98.6 59.5 82.9 73.6 173.9 40.8 263.1-37.1 101-133.7 191.9-265.1 249.4-82.5 36.1-170 54.8-250 54.8zm-421.2-385.9c18.6 48.5 120.9 294.1 307.8 349.3 199.8 59.1 530.8-63.6 608.4-274.9 30.6-83.3 17.9-165-37.7-242.8-26.6-37.4-57.4-64.9-76.4-80.1-0.1 23.6-5.3 59.9-31.8 90-33.8 38.3-91.3 54.9-171.1 49.3-335.9-23.5-556.4 85.9-599.2 109.2z"/>
				</g>
			</g>
			<g id="Layer">
				<g id="Layer">
					<path id="Layer" class="s1" d="m2839.5 3032.6q-0.1 0.1-0.1 0.1c-4.3 7.9-177.2 318.1-513.2 168.9q-18.7-8.3-35.8-17.5c-299.2-160.2-232.4-504-232.4-504l137.2-119.5c28-1.4 54-0.6 78.4 2 255.2 27.9 322.8 265.2 380.2 377.2 8 15.9 15.9 29.2 24.1 39.1 67.4 81.5 161.6 53.7 161.6 53.7z"/>
				</g>
				<g id="Layer">
					<path id="Layer" class="s2" d="m2839.5 3032.6q0 0-0.1 0.1c-0.9 1.7-8.9 16-23.9 36.4q-2.2 3-4.6 6.2c-0.4 0.6-0.9 1.2-1.4 1.9q-2.6 3.4-5.4 6.9c-1.1 1.4-2.3 2.8-3.5 4.3-1.1 1.4-2.4 2.9-3.6 4.3-7.4 8.9-15.7 18.3-24.9 27.8-1.6 1.6-3.2 3.2-4.7 4.8-26.8 26.8-60.9 54.7-102.3 76.4-2.5 1.4-5.1 2.6-7.6 3.9-2.7 1.3-5.4 2.6-8.1 3.9-2.5 1.2-5.1 2.4-7.7 3.5q-3.2 1.4-6.4 2.7-13.1 5.5-27.1 10c-2.1 0.7-4.2 1.3-6.4 1.9q-7.7 2.4-15.8 4.4c-1.9 0.5-3.8 0.9-5.8 1.4-11.9 2.7-24.2 4.9-36.8 6.4q-5 0.6-10 1c-60.2 5.3-129.3-4.6-207.2-39.2q-18.7-8.3-35.8-17.5c-24.5-34.2-50.9-75.2-44.7-85.5 9.3-15.4 65.4 11.3 94.5 3.6 5.5-1.4 10-4.1 13.1-8.5 19.2-27.8-18.1-48.6-23.5-81.3-5.4-32.8 58.9 11.4 99 11.7 40.1 0.4 9.7-18.6-7.7-61.8-17.4-43.3 65.4 31.9 104.4 23.1 39-8.9-25-61.1-11.1-89.5 13.2-27.2 78.6 37.2 139.4 43.9 8 15.9 15.9 29.2 24.1 39.1 67.4 81.5 161.6 53.7 161.6 53.7z"/>
				</g>
				<g id="Layer" style="opacity: .1">
					<path id="Layer" class="s3" d="m2340.2 3102.2c-29.1 7.7-85.2-19-94.5-3.6-6.2 10.3 20.2 51.3 44.7 85.5-299.2-160.2-232.4-504-232.4-504l137.2-119.5c28-1.4 54-0.6 78.3 2 25.6 8.1 52.5 18.6 81 32 0 0-196.6 134.1-166 320.8 11.3 68.8 70 139 151.7 186.8z"/>
				</g>
				<g id="Layer">
					<path id="Layer" class="s4" d="m2839.4 3032.7c-0.9 1.7-8.9 16-23.9 36.4q-2.2 3-4.6 6.2c-0.4 0.6-0.9 1.2-1.4 1.9q-2.6 3.4-5.4 6.9c-1.1 1.4-2.3 2.8-3.5 4.3-1.1 1.4-2.4 2.9-3.6 4.3-7.4 8.9-15.7 18.3-24.9 27.8-1.6 1.6-3.2 3.2-4.7 4.8-26.8 26.8-60.9 54.7-102.3 76.4-2.5 1.4-5.1 2.6-7.6 3.9-2.7 1.3-5.4 2.6-8.1 3.9-2.5 1.2-5.1 2.4-7.7 3.5q-3.2 1.4-6.4 2.7-13.1 5.5-27.1 10c-2.1 0.7-4.2 1.3-6.4 1.9q-7.7 2.4-15.8 4.4c-1.9 0.5-3.8 0.9-5.8 1.4-11.9 2.7-24.2 4.9-36.8 6.4q-5 0.6-10 1c-60.2 5.3-129.3-4.6-207.2-39.2q-18.7-8.3-35.8-17.5c-24.5-34.2-50.9-75.2-44.7-85.5 9.3-15.4 65.4 11.3 94.5 3.6 139.9 82.1 347.2 98.6 499.2-69.5z"/>
				</g>
				<g id="Layer">
					<path id="Layer" class="s3" d="m2502.3 3252.6c-53.6 0-113.8-11.6-180.4-41.2-179.8-79.8-244.9-220.7-267.8-324.9-24.7-112.3-7.4-204.5-6.6-208.4 0.4-2.4 1.7-4.5 3.5-6l137.2-119.5c1.8-1.6 4.1-2.5 6.5-2.6 286.7-14.9 380.9 193.6 443.4 331.4 17.5 38.6 32.6 72 48 90.7 62 74.9 146.8 51.3 150.3 50.2 4.2-1.2 8.6 0.2 11.4 3.6 2.7 3.3 3.1 8 1.1 11.7-1.9 3.4-45.5 83-132.3 144.8-50.8 36.3-122.8 70.2-214.3 70.2zm-434.4-566.9c-2.9 17.8-14.1 100.8 7.2 197 32 144.1 117.9 248.1 255.5 309.2 137.1 60.9 262.6 52 373-26.4 57.8-41.1 96.3-91.5 114.4-118.6-34.5 3-98.6-1.1-148.3-61.2-17.3-20.9-33-55.4-51.1-95.5-59.8-131.9-149.9-331-419.1-319.1z"/>
				</g>
			</g>
			<g id="Layer">
				<g id="Layer">
					<path id="Layer" class="s1" d="m1107.4 2999.2q0.1 0.1 0.1 0.2c2.6 7.8 105.5 319.2 436.2 242.3q18.4-4.3 35.5-9.7c299.3-93.4 298.4-416.8 298.4-416.8l-103.8-132.3c-25.1-6.1-48.8-10-71.4-11.8-236.3-19-338.9 184.5-410.4 276.2-10 13-19.5 23.7-28.7 31.2-75.3 62.3-155.9 20.7-155.9 20.7z"/>
				</g>
				<g id="Layer">
					<path id="Layer" class="s2" d="m1107.4 2999.2q0 0 0.1 0.2c0.5 1.6 5.3 15.9 15.3 37.1q1.5 3.1 3.1 6.4c0.3 0.6 0.7 1.3 1 2q1.8 3.5 3.7 7.2c0.8 1.5 1.6 3 2.4 4.5 0.8 1.5 1.7 3 2.5 4.6 5.2 9.3 11.1 19.2 17.8 29.5 1.1 1.7 2.3 3.4 3.4 5.2 19.7 28.9 45.8 60.1 79.6 87 2 1.7 4.1 3.3 6.2 4.9 2.2 1.6 4.4 3.3 6.6 4.9 2.1 1.5 4.3 3 6.4 4.5q2.7 1.8 5.3 3.6 11 7.2 22.9 13.7c1.8 1 3.6 2 5.5 2.9q6.6 3.5 13.5 6.7c1.7 0.8 3.3 1.5 5 2.3 10.4 4.5 21.1 8.6 32.4 12.2q4.4 1.4 8.8 2.6c53.8 15.3 118.1 18.3 194.8 0.5q18.4-4.3 35.5-9.7c28.2-26.8 59.2-59.4 55.4-69.8-5.7-15.6-61.3-1.1-86.3-13.1-4.7-2.3-8.4-5.5-10.4-10-12.7-28.6 24.8-41 35.4-69.7 10.6-28.8-55.4 0.1-91.8-6.6-36.5-6.6-5.6-18.5 17.7-54.7 23.3-36.2-64.9 17.6-98.7 2.8-33.8-14.8 33.2-51 25.6-79.2-7.3-27.1-77.8 20.1-134.1 15.6-10.1 13-19.5 23.7-28.7 31.2-75.3 62.3-155.9 20.7-155.9 20.7z"/>
				</g>
				<g id="Layer" style="opacity: .1">
					<path id="Layer" class="s3" d="m1548.3 3149.1c25 12 80.6-2.5 86.3 13.1 3.8 10.4-27.2 43-55.4 69.8 299.3-93.4 298.4-416.8 298.4-416.8l-103.8-132.3c-25.1-6.1-48.8-10-71.4-11.8-24.5 2.9-50.8 7.8-78.9 14.9 0 0 155 155.8 94.8 319.9-22.1 60.5-87.6 114-170 143.2z"/>
				</g>
				<g id="Layer">
					<path id="Layer" class="s4" d="m1107.5 2999.3c0.5 1.7 5.3 16 15.3 37.2q1.5 3.1 3.1 6.4c0.3 0.6 0.7 1.3 1 2q1.8 3.5 3.7 7.2c0.8 1.5 1.6 3 2.4 4.5 0.8 1.5 1.7 3 2.5 4.6 5.2 9.3 11.1 19.2 17.8 29.5 1.1 1.7 2.3 3.4 3.4 5.2 19.7 28.9 45.8 60.1 79.6 87 2 1.7 4.1 3.3 6.2 4.9 2.2 1.6 4.4 3.3 6.6 4.9 2.1 1.5 4.3 3 6.4 4.5q2.7 1.8 5.3 3.6 11 7.2 22.9 13.7c1.8 1 3.6 2 5.5 2.9q6.6 3.5 13.5 6.7c1.7 0.8 3.3 1.5 5 2.3 10.4 4.5 21.1 8.6 32.4 12.2q4.4 1.4 8.8 2.6c53.8 15.3 118.1 18.3 194.8 0.5q18.4-4.3 35.5-9.7c28.2-26.8 59.2-59.4 55.4-69.8-5.7-15.6-61.3-1.1-86.3-13.1-141.1 50.1-332.2 29.1-440.8-149.8z"/>
				</g>
				<g id="Layer">
					<path id="Layer" class="s3" d="m1443.5 3263.7c-119.7 0-200.7-54.9-250.6-107.2-68-71.2-93.8-151-94.9-154.3-1.2-3.8 0.1-8 3.1-10.6 3-2.5 7.4-3 10.9-1.2 3 1.6 75.8 37.7 145.1-19.5 17.2-14.2 36.7-41.9 59.3-73.9 80.6-114.2 202.4-286.7 459.8-223.7 2.1 0.6 4 1.8 5.4 3.5l103.8 132.3c1.3 1.7 2.1 3.8 2.1 6 0 3.7-0.3 90.3-42.2 188-38.9 90.5-122.4 207-299.4 248.2-36.9 8.6-71 12.4-102.4 12.4zm-319.1-247.8c11.8 27.7 37.9 80.2 83.2 127.5 86.6 90.2 198.9 120.1 333.8 88.7 135.5-31.5 231.5-111 285.5-236.2 36-83.5 40.3-160.8 40.8-177.4l-99.5-126.8c-242.1-57.6-358.5 107.4-435.7 216.7-23.4 33.2-43.6 61.8-62.9 77.7-55.5 45.9-114.4 38.5-145.2 29.8z"/>
				</g>
			</g>
			<g id="Layer">
				<g id="Layer">
					<g id="Layer">
						<path id="Layer" class="s1" d="m2249.2 3236.7c-21.1 27.9-67.7 77.7-155.4 119.5-129.9 61.8-190.8 19-207.7-28.7-16.9-47.7 36.1-103.4 36.1-103.4-3.3-2.9-6.5-5.8-9.8-8.7-165.1-146.9-245-293.2-245-293.2l323-67.4c42.5 60.8 105.6 144.3 160.4 215.4 41.4 53.9 78.2 100.8 97.8 125.7 9.4 11.9 9.7 28.7 0.6 40.8z"/>
					</g>
					<g id="Layer">
						<path id="Layer" class="s5" d="m2249.2 3236.7c-21.1 27.9-67.7 77.7-155.4 119.5-90.8 43.2-148 35.3-179.9 10.2-13.7-10.7-22.7-24.5-27.8-38.9-16.9-47.7 36.1-103.4 36.1-103.4-3.3-2.9-6.5-5.8-9.8-8.7 2-0.4 62.7-12.2 93-36.7 30.8-24.9 33.8-55.7 67.4-91.5 32.6-34.8 75.6-17.9 78-17 31.2 40.6 59.7 77.2 80.2 103.4 6.9 8.6 12.7 16.1 17.6 22.3 9.4 11.9 9.7 28.7 0.6 40.8z"/>
					</g>
					<g id="Layer">
						<path id="Layer" class="s6" d="m2249.2 3236.7c-21.1 27.9-67.7 77.7-155.4 119.5-90.8 43.2-148 35.3-179.9 10.2-1.3-9.5-1.5-15.7-1.5-15.7 0 0 79.1 4.4 137.6-27.7 58.5-32.2 93.5-60.5 93.5-60.5l-45.9-6.1-102.5 29.3-39.2-37.7 63.2-73.5 24.6 30c0 0 1.5 8.5 29.1 0 27.5-8.4 65.3-10.9 65.3-10.9l71.5 7.6 21.4-27.6c6.9 8.6 12.7 16.1 17.6 22.3 9.4 11.9 9.7 28.7 0.6 40.8z"/>
					</g>
					<g id="Layer">
						<path id="Layer" class="s3" d="m1912.4 3226.1c-5.1 0-9.5-3.5-10.5-8.6-1.1-5.8 2.7-11.4 8.5-12.5 0.6-0.2 59.9-11.7 88.3-34.6 14.7-11.9 22.6-25.6 31.6-41.4 8.5-14.7 18-31.3 34.6-49.1 38.3-40.7 88-20.3 90.1-19.4 5.4 2.3 8 8.5 5.7 14-2.3 5.4-8.6 7.9-14 5.7-1.6-0.7-38.3-15.4-66.2 14.3-14.9 16-23.4 30.8-31.6 45.1-9.8 17-18.9 33-36.8 47.4-32.6 26.2-95.1 38.4-97.7 38.9q-1 0.2-2 0.2z"/>
					</g>
					<g id="Layer">
						<path id="Layer" class="s3" d="m2025 3243.8c-2.7 0-5.5-0.5-8.2-1.4-17.8-6.2-40.2-36.7-44.5-42.7-3.5-4.8-2.4-11.5 2.4-14.9 4.8-3.4 11.5-2.3 14.9 2.5 8.9 12.3 25.9 32 34.2 34.9 1.8 0.6 3.8-0.2 5.9-2.4 3.9-4.1 4.7-9.5 4.2-10.8-2.8-6.3-17.3-22-26.7-31.2-4.2-4.1-4.3-10.9-0.1-15.1 4.1-4.2 10.9-4.3 15.1-0.2 4.2 4.2 25.6 25.5 31.2 37.6 5 11.2-0.1 25.5-7.8 33.9-5.8 6.4-13.1 9.8-20.6 9.8z"/>
					</g>
					<g id="Layer">
						<path id="Layer" class="s3" d="m1922.2 3382.8c-4.6 0-8.9-3-10.3-7.6-1.7-5.6 1.5-11.6 7.2-13.3 243.1-73.1 302.5-190.8 303.1-192 2.6-5.3 8.9-7.5 14.2-5 5.3 2.6 7.6 8.9 5.1 14.2-2.5 5.2-63.1 127.1-316.3 203.3q-1.5 0.4-3 0.4z"/>
					</g>
					<g id="Layer">
						<path id="Layer" class="s3" d="m1985.8 3298c-1.7 0-3.4-0.4-5-1.2l-77.6-41.1c-5.2-2.7-7.2-9.2-4.4-14.4 2.8-5.2 9.2-7.2 14.4-4.4l73.9 39 111.2-30.8q1.8-0.5 3.7-0.3l48.1 4c12.4-9.8 29-26.4 40.8-38.7l-58.5-5.7-85.1 21.4c-5.7 1.5-11.5-2-12.9-7.7-1.5-5.8 2-11.6 7.7-13l86.9-21.8c1.2-0.3 2.4-0.4 3.7-0.3l81.9 8c4 0.4 7.4 3 8.9 6.8 1.4 3.8 0.6 8-2.1 11-1.6 1.8-39 42.9-61.8 59.6-2.1 1.5-4.6 2.3-7.2 2.1l-50.3-4.3-113.4 31.4q-1.4 0.4-2.9 0.4z"/>
					</g>
					<g id="Layer">
						<path id="Layer" class="s3" d="m1980.1 3397.5c-21 0-37.2-4-49.4-9.1-26-10.7-45.4-31.1-54.7-57.3-14.9-42.1 16.3-87.6 31.2-106-165.8-147.1-248.4-296.2-249.2-297.8-1.6-2.9-1.8-6.5-0.3-9.6 1.4-3 4.2-5.3 7.5-5.9l323-67.4c4.2-0.9 8.5 0.8 11 4.3 75.2 107.5 216.3 287.9 257.8 340.6 12.4 15.8 12.7 37.9 0.7 53.8-20.5 27.3-68.5 79.5-159.3 122.7-50 23.8-88.8 31.7-118.3 31.7zm-296-467.9c23.7 39.3 105.1 164.3 245.1 286.4 2.2 2 3.5 4.7 3.6 7.6 0.2 2.9-0.9 5.7-2.9 7.9-0.5 0.5-48.2 51.5-33.7 92.4 7.2 20.5 22.4 36.4 42.7 44.8 36.2 15 88.2 7.4 150.4-22.2 86.6-41.2 132-90.5 151.3-116.2 6.2-8.2 6-19.6-0.4-27.8-40.8-51.9-178.1-227.3-254.5-335.8z"/>
					</g>
				</g>
				<g id="Layer">
					<g id="Layer">
						<path id="Layer" class="s7" d="m1586.3 1949.9l107.4-97.7-91 7.3z"/>
					</g>
					<g id="Layer">
						<path id="Layer" class="s8" d="m1548.1 2001.7c0 0 67.6-79.6 112.3-120.4 44.7-40.7 162.9-58.9 224.6-58.8 61.7 0.2 93.5 635.1 93.5 635.1l-446.6 50.8c-0.1 0 97.5-311.5 16.2-506.7z"/>
					</g>
					<g id="Layer">
						<g id="Layer">
							<path id="Layer" class="s6" d="m1864.6 2333.3c0 0-235.9-160.8-306.2-219.6l49-39.4c70.3 58.8 306.2 219.7 306.2 219.7z"/>
						</g>
						<g id="Layer">
							<path id="Layer" class="s3" d="m1864.6 2344c-2.1 0-4.2-0.6-6-1.9-9.7-6.5-237.1-161.8-307-220.2-2.5-2.1-3.9-5.1-3.9-8.3 0.1-3.2 1.5-6.2 4-8.2l49-39.4c4-3.2 9.7-3.1 13.6 0.2 69.1 57.7 303 217.3 305.3 218.9 2.8 1.9 4.6 5.1 4.7 8.4 0.1 3.4-1.3 6.7-4 8.8l-49 39.3c-1.9 1.6-4.3 2.4-6.7 2.4zm-289.2-230.2c71.4 57.1 252.1 181.1 288.7 206.2l31.6-25.4c-47.6-32.5-221-151.9-288.4-206.5z"/>
						</g>
					</g>
					<g id="Layer">
						<g id="Layer">
							<path id="Layer" class="s6" d="m1589.2 2228.4c0 0 143.8-246.6 197.5-320.9l42.7 46.1c-53.7 74.3-197.5 320.9-197.5 320.9z"/>
						</g>
						<g id="Layer">
							<path id="Layer" class="s3" d="m1631.9 2285.2c-3 0-5.8-1.2-7.8-3.4l-42.8-46.1c-3.1-3.5-3.7-8.6-1.3-12.7 5.8-10.1 144.7-247.9 198-321.8 1.9-2.5 4.8-4.2 8-4.4 3.3-0.2 6.4 1.1 8.5 3.4l42.7 46.2c3.5 3.7 3.8 9.4 0.8 13.5-52.7 73-195.4 317.6-196.9 320-1.7 2.9-4.7 4.9-8 5.3q-0.6 0-1.2 0zm-29.5-58.2l27.5 29.7c29.2-49.7 136.1-231.1 185.8-302.2l-27.9-30c-51.9 75.2-163 264.2-185.4 302.5z"/>
						</g>
					</g>
					<g id="Layer">
						<path id="Layer" class="s3" d="m1531.8 2519.1c-3.1 0-6.1-1.4-8.2-3.9-2.3-2.8-3-6.5-1.9-10 0.9-3.1 95.4-310.1 16.5-499.4-1.6-3.7-0.9-8 1.7-11.1 2.8-3.2 68.6-80.5 113.3-121.3 46.2-42.1 164.8-61.6 231-61.6q0.4 0 0.8 0.1c21.3 0 36.1 31.3 51.1 107.9 10.4 53 20.3 126.8 29.4 219.3 15.5 157.2 23.6 316.4 23.7 318 0.3 5.6-3.9 10.5-9.5 11.2l-446.6 50.7q-0.7 0.1-1.3 0.1zm28.6-515.4c68.4 173.7 4.8 426.6-13.7 492.3l420.6-47.8c-2-36.6-9.5-167.4-22.2-298.7-28.2-290.3-55.4-314.5-60.5-316.3q-0.3 0-0.5 0c-64.9 0-176.2 19.3-216.5 56-37.4 34.1-91.8 96.6-107.2 114.5z"/>
					</g>
					<g id="Layer">
						<path id="Layer" class="s9" d="m1854.3 1844.2c0 0-54.7 83.9-125.3 86.2-70.6 2.3-77.9-68.8-77.9-68.8z"/>
					</g>
					<g id="Layer">
						<path id="Layer" class="s3" d="m1725.7 1941.1c-60.9 0-82.4-51-85.2-78.4-0.6-5.9 3.7-11.1 9.6-11.7 5.7-0.6 11 3.6 11.7 9.5 0.2 2.5 7.1 61 66.8 59.2 64.1-2.1 116.2-80.6 116.7-81.4 3.2-4.9 9.9-6.3 14.8-3.1 4.9 3.3 6.3 9.9 3.1 14.8-2.4 3.6-58.6 88.6-133.9 91q-1.8 0.1-3.6 0.1z"/>
					</g>
				</g>
				<g id="Layer">
					<g id="Layer">
						<path id="Layer" class="s5" d="m1962.5 2371l-1.1 68.2-5.5 338.9-1.7 102.2c-90.5 51.1-262 111.8-262 111.8-25.2-39.7-45.1-69.9-45.1-69.9-22.2 3-28.4-4.9-28.4-4.9-129.9-153.6-116.3-339.6-96.7-436.8 8.4-41.3 17.8-66.5 17.8-66.5 208.1-62.6 422.7-43 422.7-43z"/>
					</g>
					<g id="Layer" style="opacity: .2">
						<path id="Layer" class="s3" d="m1610.3 2571.4c0 0 25.7 17.2 77.6 31.4 52 14.2 113.6 24.5 113.6 24.5l8.9 222.8-144 65.3c0 0 54.4-76.7 52.6-154.2-1.9-77.6-108.7-189.8-108.7-189.8z"/>
					</g>
					<g id="Layer">
						<path id="Layer" class="s6" d="m1955.9 2778.1l-1.7 102.2c-90.5 51.1-262 111.8-262 111.8-25.2-39.7-45.1-69.9-45.1-69.9 0 0 158-52.7 308.8-144.1z"/>
					</g>
					<g id="Layer">
						<path id="Layer" class="s6" d="m1962.5 2371l-1.1 68.2q-0.2 0-0.2 0c-232-21.5-439.2 41.3-439.2 41.3 8.4-41.3 17.8-66.5 17.8-66.5 208.1-62.6 422.7-43 422.7-43z"/>
						<path id="Layer" class="s3" d="m1518.9 2483.9l0.8-3.9c8.3-40.9 17.7-66.6 17.8-66.9l0.4-1.1 1.2-0.3c206.2-61.9 421.5-43.2 423.7-43.1l2.2 0.2-1.3 72.8h-2.3c-229.3-21.2-436.6 40.6-438.7 41.2zm22.7-68.1c-1.8 5.1-9.4 27.6-16.5 61.3 29.2-8.3 222.2-59.6 434-40.5l1-63.5c-23.1-1.8-224.7-15.2-418.5 42.7z"/>
					</g>
					<g id="Layer">
						<path id="Layer" class="s3" d="m1522 2491.2c-4.6 0-8.8-2.9-10.2-7.6-1.7-5.6 1.5-11.6 7.1-13.3 2.1-0.6 211.9-63.2 443.3-41.7 5.9 0.6 10.2 5.8 9.6 11.6-0.5 5.9-5.7 10.2-11.6 9.7-227.3-21.1-433 40.2-435.1 40.9q-1.5 0.4-3.1 0.4z"/>
					</g>
					<g id="Layer">
						<path id="Layer" class="s3" d="m1687.9 2457.5c-2.4 0-4.9-0.8-6.9-2.5-4.5-3.9-5-10.6-1.2-15.1l62-72.6c3.9-4.5 10.6-5 15.1-1.2 4.5 3.9 5 10.6 1.2 15.1l-62 72.6c-2.2 2.5-5.1 3.7-8.2 3.7z"/>
					</g>
					<g id="Layer">
						<path id="Layer" class="s3" d="m1624.6 2577.2c26.8 6.4 51.6 12.8 78 17.9 42.9 7.4 86.5 5.9 129.1-2.6 5.9-1.4 11.9 2.5 12.9 8.6 1 5.4-2.4 10.6-7.5 12-18 5.2-36.5 9.2-55.3 10-52.3 2.9-118.1-8.7-157.2-45.9z"/>
					</g>
					<g id="Layer">
						<path id="Layer" class="s3" d="m1647.1 2932.9c-4.4 0-8.6-2.8-10.1-7.3-1.9-5.6 1.2-11.7 6.7-13.5 1.6-0.5 158.7-53.4 306.7-143.2 5-3 11.6-1.4 14.7 3.6 3 5.1 1.4 11.6-3.6 14.7-150.2 91-309.4 144.6-311 145.1q-1.7 0.6-3.4 0.6z"/>
					</g>
					<g id="Layer">
						<path id="Layer" class="s3" d="m1692.2 3002.8c-3.6 0-7-1.8-9-5-18.7-29.5-34.7-54-41.5-64.4-21.6 1.2-29.9-7.6-31.4-9.5-97.5-115.3-114.3-248.9-111.1-340.7 3.4-99 29.4-170 30.6-172.9 1.1-3.2 3.7-5.6 6.9-6.5 207.7-62.4 424.6-43.6 426.8-43.4 5.6 0.5 9.8 5.2 9.7 10.8l-8.3 509.2c0 3.8-2.1 7.3-5.4 9.1-90.3 51-256.7 110.2-263.7 112.7q-1.8 0.6-3.6 0.6zm-45.1-91.3c3.6 0 7 1.8 8.9 4.8 0.2 0.3 17.9 27.1 40.6 62.9 34.1-12.4 168.6-62.1 247.1-105.3l8-493c-43.9-2.7-226.6-10.2-403.6 41.8-12.6 38.4-86.7 291.6 78.4 487.3 0.8 0.5 5.9 3.4 19.2 1.6q0.7-0.1 1.4-0.1zm-20.5-1.4q0.1 0.1 0.2 0.2-0.1-0.1-0.2-0.2z"/>
					</g>
				</g>
				<g id="Layer">
					<g id="Layer">
						<path id="Layer" class="s6" d="m1576.2 2858.1c0 0-165.3-28.8-198.2-44.9-13.9-6.9-26.8-14.4-34.3-26.3-10.2-16.2-10.5-40.6 9.8-83.1l196.9-18.5-10.6 55.8c0 0 6.6 49.2 36.4 117z"/>
					</g>
					<g id="Layer">
						<path id="Layer" class="s10" d="m1576.2 2858.1c0 0-165.3-28.8-198.2-44.9-13.9-6.9-26.8-14.4-34.3-26.3-3.4-21.7 14.5-34.1 14.5-34.1l181.6-11.7c0 0 6.6 49.2 36.4 117z"/>
					</g>
					<g id="Layer" style="opacity: .6">
						<path id="Layer" class="s1" d="m1456.5 2694.1c0 0-40.8 31.3 3.3 52.2l-78.8 0.7c0 0 39.3-42-5.4-47z"/>
					</g>
					<g id="Layer">
						<path id="Layer" class="s3" d="m1540.5 2751.7l-182.2 3.7c-3.1 0.1-3.6-4.8-0.3-5.2l181.1-19.8c14.6-1.1 16.1 20.6 1.4 21.3z"/>
					</g>
					<g id="Layer">
						<path id="Layer" class="s3" d="m1576.2 2868.8q-0.9 0-1.8-0.2c-6.8-1.2-167.3-29.2-201.1-45.9-36.3-17.9-68.4-42.2-29.4-123.5 1.6-3.4 4.9-5.7 8.6-6l196.9-18.6c3.3-0.3 6.6 1 8.9 3.5 2.2 2.5 3.2 5.9 2.6 9.2l-10.3 54c1.5 8.9 9.6 53.9 35.4 112.5 1.6 3.6 1.1 7.8-1.3 10.9-2.1 2.6-5.2 4.1-8.5 4.1zm-215.6-154.9c-29.2 64.3-4.2 76.6 22.2 89.7 22.7 11.2 121.6 30.6 176 40.5-23.6-58.7-29.4-99.7-29.6-101.6q-0.2-1.7 0.1-3.4l7.9-41.9z"/>
					</g>
				</g>
				<g id="Layer">
					<g id="Layer">
						<path id="Layer" class="s6" d="m1531.8 2508.4c0 0 30.9 128.2 66.7 222.7 0 0 34.8 3 75.5-12.9 0 0-59.6-108.4-82.5-213.8 0 0-21.9-3-59.7 4z"/>
					</g>
					<g id="Layer" style="opacity: .6">
						<path id="Layer" class="s1" d="m1583.7 2689.6c0 0-1.5-31.7 15.8-43 17.2-11.3 47.7 17.2 47.7 17.2l-35.1-87c0 0-4 24.1-20.6 28-16.6 4-36.8-9.7-36.8-9.7z"/>
					</g>
					<g id="Layer">
						<path id="Layer" class="s3" d="m1605.7 2742c-4.8 0-7.7-0.2-8.2-0.3-4-0.3-7.6-3-9-6.8-35.6-94-66.7-222.7-67-224-0.7-2.9-0.2-5.9 1.4-8.3 1.6-2.5 4.1-4.2 7-4.7 39-7.2 62.1-4.2 63-4.1 4.5 0.6 8.1 4 9 8.4 22.3 102.6 80.9 209.7 81.5 210.8 1.5 2.7 1.7 5.9 0.7 8.8-1.1 2.9-3.3 5.2-6.2 6.3-31.2 12.2-58.9 13.9-72.2 13.9zm-60.7-224.9c8.1 32.2 32.9 127.8 60.9 203.5 9.9 0 29.8-1.2 52.9-8.4-15.4-29.6-56.3-113-76-197.6-7.4-0.3-20.3-0.1-37.8 2.5z"/>
					</g>
				</g>
				<g id="sword">
					<g id="Layer">
						<g id="Layer">
							<path id="Layer" class="s6" d="m1294.7 2101.8c-87.5 108.3-172.6 138.8-208.7 147.2-10.9 2.6-22.4-0.2-30.7-7.7-8.5-7.6-22.5-20.3-45.1-41.2-10.4-9.7-17.9-18-23.3-25.1-20.4-26.7-10.5-36.2-10.5-36.2 113.3-143.1 259.5-151.1 259.5-151.1 7.6 5.4 14.5 11.6 21 18.3 18.6 19 32.6 41.6 41.3 57.5 6.7 12.3 5.3 27.4-3.5 38.3z"/>
						</g>
						<g id="Layer">
							<path id="Layer" class="s11" d="m1279 2120.4c-81.8 93.3-159 120.7-193 128.6-10.9 2.6-22.4-0.2-30.7-7.7-8.5-7.6-22.5-20.3-45.1-41.2-10.4-9.7-17.9-18-23.3-25.1 0.1-2.1 0.1-3.4 0.1-3.4 0 0 21.9 29.9 39.8 23.2 17.9-6.6 96.8-45.9 163.7-98.8 31.4-24.9 48.8-42 58.1-55 13.3 16.1 23.8 33.1 30.7 45.8 5.8 10.7 5.6 23.3-0.3 33.6z"/>
						</g>
						<g id="Layer">
							<path id="Layer" class="s3" d="m1078.1 2260.6c-10.9 0-21.6-4-29.9-11.3-10.9-9.7-26.1-23.6-45.2-41.4-26.2-24.3-39.6-44.8-39.7-61 0-8.1 3.2-12.9 5-15 114.9-145 260.8-154.5 267-154.9 2.4-0.1 4.8 0.6 6.8 2 30.1 21.6 52.2 55.1 65.5 79.4 8.8 16.1 7 35.8-4.6 50.1-90.6 112.2-180.2 142.9-214.6 150.9-3.4 0.8-6.8 1.2-10.3 1.2zm-93.3-115.2c-0.3 1.7-1.7 15 32.7 46.9 19 17.6 34.2 31.5 44.9 41 5.7 5.1 13.6 7.1 21.2 5.3 32.2-7.5 116.3-36.5 202.8-143.5 6.1-7.6 7.1-18 2.4-26.5-9.6-17.6-29.4-49.5-56-69.9-23 2.5-149 21.7-248 146.7zm-1 1.1q0 0 0 0.1 0-0.1 0-0.1zm0 0q0 0 0 0 0 0 0 0zm0 0q0 0 0 0 0 0 0 0zm0 0zm-7.4-7.7h0.1z"/>
						</g>
					</g>
					<g id="Layer">
						<g id="Layer">
							<path id="Layer" class="s5" d="m1234.4 2021c0 0-92 100.9-214.3 150.6 0 0-19.8-13.2-33.7-25.1-9.6-8.3-36.3-41.9-53.5-78.2-7.7-16.4-13.6-33.3-15.1-48.8-5-49.7 41.7-106.3 120.2-143.1 78.6-36.8 126.3-46.7 155.1-5 7.6 11 14.7 23.1 20.6 35.6 16.7 35.3 24.2 73.4 7.3 94.7z"/>
						</g>
						<g id="Layer">
							<path id="Layer" class="s8" d="m1234.4 2021c0 0-92 100.9-214.3 150.6 0 0-19.8-13.2-33.7-25.1-9.6-8.3-36.3-41.9-53.5-78.2-1-14.8 1.6-33.5 17.5-46.1 25.5-20 209.1-93.7 263.3-115.2 16.7 35.3 24.1 73.4 7.3 94.7z"/>
						</g>
						<g id="Layer">
							<path id="Layer" class="s3" d="m1020.2 2182.3c-2.1 0-4.2-0.6-6-1.8-0.8-0.5-20.5-13.7-34.8-25.9-16.5-14.2-67.1-82.3-72.3-134-5.5-55 44.1-115.4 126.4-153.9 64.8-30.3 131.1-55.4 168.4-1.4 30.5 44.2 51 101.8 32 136.2l9.3 13.4c2.8 4.1 2.4 9.6-0.9 13.3-3.8 4.2-95 103.3-218.1 153.3-1.3 0.6-2.7 0.8-4 0.8zm121-327.6c-22.7 0-53.8 10.3-98.6 31.3-72.8 34.1-118.7 87.4-114.2 132.5 4.4 44.5 50.9 107.9 64.9 119.8 9.3 8 21.5 16.7 28.1 21.2 99-41.7 177.7-117.6 199.3-139.6l-8.5-12.2c-2.7-3.9-2.5-9 0.4-12.7 18.4-23.2-0.8-77.8-28.3-117.5-10.4-15.1-23.6-22.8-43.1-22.8z"/>
						</g>
					</g>
					<g id="Layer">
						<g id="Layer">
							<g id="Layer">
								<path id="Layer" class="s12" d="m3573.1 726.9c-2.1 2.9-72.1 96.3-272.4 241.8-215.6 156.7-1494.1 771.2-1827.3 930.5-50.6 24.1-79.4 37.8-79.4 37.8l-61.7-143.1c0 0 70.2-22.2 141.1-66.4 25.5-15.9 51-34.5 73.5-56.1 19.3-18.5 36.2-38.9 48.8-61.5 0 0 158.1-12.9 368.9-106.3 156-69.2 962-461.4 1370.6-660.6 141.3-69 235.1-114.8 237.9-116.1z"/>
							</g>
							<g id="Layer">
								<path id="Layer" class="s2" d="m3573.1 726.9c-2.1 2.9-72.1 96.3-272.4 241.8-215.6 156.7-1494.1 771.2-1827.3 930.5v-171.7c25.5-15.9 51-34.5 73.5-56.1l-14.8 131.8 1420.7-699.3c0 0 336-172.9 382.4-260.9 141.3-69 235.1-114.8 237.9-116.1z"/>
							</g>
							<g id="Layer">
								<path id="Layer" class="s3" d="m1473.4 1909.6c-5.8 0-10.4-4.7-10.4-10.5v-171.6c0-5.8 4.6-10.5 10.4-10.5 5.8 0 10.5 4.7 10.5 10.5v171.6c0 5.8-4.7 10.5-10.5 10.5z"/>
							</g>
							<g id="Layer">
								<path id="Layer" class="s3" d="m1557.3 1672.6l-14.4 131.8-15.5-11c264.2-131.4 650-320.9 919.1-453.1 23.1-11.3 492-241 503.1-246.5 61.5-31.6 122.1-65.2 181.5-100.6 36.6-21.6 72.8-44.1 107.5-68.4 33.7-24.5 70-48.7 93.1-83.9 1.1-2 3.6-2.6 5.6-1.4 1.8 1.1 2.5 3.5 1.5 5.4-10.7 19.9-26.2 35.5-42 50.2-16 14.6-32.7 28.2-49.9 41.1-90.6 67-188.5 122.9-287.6 176.1-9.9 4.8-480.6 237.9-502.5 248.6-277.4 136.7-663.1 327.1-937.7 460.7 0 0 2.3-19.6 2.3-19.6l15.1-131.8c2-13.8 22.1-11.1 20.8 2.4z"/>
							</g>
							<g id="Layer">
								<path id="Layer" class="s3" d="m1388.7 1951.1l-70.6-163.7 11.1-3.5c1.9-0.6 191.7-61.9 257.4-179.1l2.8-4.8 5.5-0.5c1.6-0.1 159-14 365.5-105.5 208.1-92.3 1594.2-769.8 1608.1-776.6l38.1-18.6-25 34.2c-2.9 3.9-72.2 97.1-274.7 244.2-246.3 178.9-1891.8 961.4-1908.4 969.3zm-42.3-151l52.9 122.7c137.5-65.5 1660.4-792 1895.3-962.6 124.3-90.3 198.4-160.8 236.6-201.3-244.5 119.4-1375.6 671.4-1562.3 754.2-188.2 83.4-336.7 103.3-366.7 106.6-62.9 106.1-213.5 165.4-255.8 180.4z"/>
							</g>
						</g>
						<g id="Layer">
							<g id="Layer">
								<path id="Layer" class="s12" d="m900.2 2058.3l-160.4 86.2 9.9 91.4 173.7-94.8z"/>
							</g>
							<g id="Layer" style="opacity: .2">
								<path id="Layer" class="s3" d="m874.7 2112.3l-139.5 78.2 14.2 21.9 138.2-75.9z"/>
							</g>
							<g id="Layer">
								<path id="Layer" class="s3" d="m749.8 2246.4c-1.7 0-3.4-0.4-4.9-1.2-3.1-1.6-5.2-4.7-5.6-8.2l-9.9-91.4c-0.5-4.3 1.7-8.3 5.5-10.4l160.3-86.1c2.8-1.5 6.2-1.7 9.1-0.4 2.9 1.2 5.1 3.7 6 6.8l23.2 82.8c1.3 4.7-0.8 9.7-5.1 12l-173.6 94.8c-1.6 0.9-3.3 1.3-5 1.3zm1.2-96.1l7.5 68.9 152.6-83.3-17.5-62.2z"/>
							</g>
						</g>
						<g id="Layer">
							<g id="Layer">
								<path id="Layer" class="s12" d="m1240.7 1868.6l-371.1 194.9c-11.3 5.9-15.8 19.9-9.9 31.3l33.1 65.2c6 11.8 20.7 16.2 32.3 9.8l329.7-183.1z"/>
							</g>
							<g id="Layer" style="opacity: .2">
								<path id="Layer" class="s3" d="m863.1 2101.5l35.8 17.3 49.1-22.8-8.8-60.6 289.5-146.1-15.7 98.4-317.1 159.4z"/>
							</g>
							<g id="Layer">
								<path id="Layer" class="s3" d="m913.7 2183.2c-3.3 0-6.6-0.5-9.9-1.5-8.9-2.7-16.1-8.7-20.3-17l-33.2-65.1c-8.3-16.5-1.9-36.8 14.5-45.4l371-194.9c3.1-1.6 6.7-1.6 9.8 0 3 1.6 5.1 4.6 5.5 8l14.1 118.2c0.5 4.2-1.6 8.3-5.3 10.4l-329.8 183c-5.1 2.9-10.7 4.3-16.4 4.3zm318.4-298.3l-357.6 187.8c-6.2 3.3-8.7 11.1-5.5 17.4l33.2 65.1c1.6 3.2 4.3 5.5 7.7 6.5 3.4 1 7 0.7 10.1-1.1l323.5-179.6z"/>
							</g>
						</g>
						<g id="Layer">
							<g id="Layer">
								<path id="Layer" class="s12" d="m1280.6 1838.6l-67.6 35.8v161l126.3-72.5z"/>
							</g>
							<g id="Layer">
								<path id="Layer" class="s13" d="m1211.7 1973.5c0 0 38.9 0.1 49.7-31.5 10.8-31.6-12.3-73.4-12.3-73.4l59.4 112-96.8 60.4z"/>
							</g>
							<g id="Layer">
								<path id="Layer" class="s3" d="m1213 2045.9c-1.8 0-3.6-0.5-5.2-1.4-3.3-1.9-5.2-5.3-5.2-9.1v-161c0-3.9 2.1-7.5 5.5-9.3l67.6-35.8c2.6-1.3 5.5-1.6 8.2-0.6 2.7 0.9 5 2.8 6.2 5.4l58.6 124.3c2.4 4.9 0.5 10.8-4.2 13.5l-126.3 72.6c-1.6 0.9-3.4 1.4-5.2 1.4zm10.5-165.2v136.6l102.2-58.7-49.9-105.6z"/>
							</g>
						</g>
						<g id="Layer">
							<g id="Layer">
								<path id="Layer" class="s2" d="m1296.5 1805c-12.2 5.4-29 13.7-46.4 25.3-9.1 6.1-12 18.1-6.8 27.7 15.2 27.9 47.7 87.1 80.3 142.3 5.7 9.7 17.9 13.2 27.9 8 8.7-4.5 20-10.6 32.1-17.7 9.4-5.4 13-17.1 8.5-27l-67.9-148.1c-4.8-10.5-17.1-15.2-27.7-10.5z"/>
							</g>
							<g id="Layer">
								<path id="Layer" class="s4" d="m1267.7 1907.5c0 0 15.9 12.9 30.8 5.1 14.9-7.9-14.9-101.6-14.9-101.6l22.4-7.8c0 0 57.1 169.1 59.1 184.5 2 15.4-25.5 26.6-30.3 23-4.8-3.6-67.1-103.2-67.1-103.2z"/>
							</g>
							<g id="Layer">
								<path id="Layer" class="s3" d="m1341.8 2021.1c-10.9 0-21.4-5.5-27.2-15.5-32.3-54.7-64.3-112.8-80.5-142.6-7.9-14.5-3.5-32.3 10.2-41.4 18.6-12.4 36.4-21.1 48-26.2 15.7-6.9 34.3 0.1 41.5 15.7l67.8 148.2c6.8 14.8 1.3 32.2-12.7 40.4-10.5 6.1-21.4 12.1-32.6 17.9-4.6 2.4-9.6 3.5-14.5 3.5zm-36.7-207.5c-1.5 0-2.9 0.3-4.4 1-10.9 4.7-27.5 12.9-44.8 24.4-4.6 3-6 9.2-3.4 14 16.1 29.6 48 87.6 80.1 142 2.9 4.8 9.1 6.6 14.1 4 10.8-5.6 21.5-11.5 31.6-17.4 4.7-2.8 6.6-8.6 4.3-13.6l-67.9-148.2c-1.8-3.9-5.6-6.2-9.6-6.2zm-8.6-8.6h0.1z"/>
							</g>
						</g>
						<g id="Layer">
							<g id="Layer">
								<path id="Layer" class="s2" d="m1368.8 2055.6c0 0-20.6-165.3-95.1-310.5 0 0 47.7-48.7 112.3-63.6 0 0 38.6 119.3 24.6 322.9-1.4 20.2-13.7 38.1-32.1 46.7z"/>
							</g>
							<g id="Layer">
								<path id="Layer" class="s4" d="m1327.8 1874l60.2-39.7c0 0 14 120.9 6 191.7l-25.2 29.6z"/>
							</g>
							<g id="Layer">
								<path id="Layer" class="s3" d="m1368.8 2066.1c-1.8 0-3.5-0.4-5.1-1.3-2.9-1.6-4.9-4.5-5.3-7.9-0.2-1.6-21.2-165.2-94-307-2.1-4-1.4-8.9 1.8-12.1 2-2.1 50.6-51.1 117.5-66.5 5.3-1.2 10.6 1.8 12.3 7 1.6 4.9 39 123.5 25 326.8-1.6 24.1-16.2 45.3-38 55.5l-9.8 4.5c-1.4 0.7-2.9 1-4.4 1zm-82.3-318.7c59.3 118.7 83.8 250 90.6 292.7 13.2-7.4 22-21.1 23-36.4 11.5-167-13-277.6-21.4-309.5-44.2 12.9-79.2 41.6-92.2 53.2z"/>
							</g>
						</g>
						<g id="Layer">
							<g id="Layer">
								<path id="Layer" class="s2" d="m759.7 2094.1c0 0-8 72.6-5 159l-45.7 82.6c0 0-27.2-72.5-24.5-169.1 0.3-9.1 3.9-17.9 10.3-24.4 12.5-13 36.2-34.8 64.9-48.1z"/>
							</g>
							<g id="Layer">
								<path id="Layer" class="s4" d="m703 2185.5c0 0 6.7 24.2 23.2 18.9 16.6-5.3 23.5-37.4 23.5-37.4l4.9 82.9-37 64.9c0 0-19.5-86.5-14.6-129.3z"/>
							</g>
							<g id="Layer">
								<path id="Layer" class="s3" d="m709 2346.1q-0.4 0-0.8 0c-4.1-0.3-7.6-2.9-9-6.8-1.2-3-27.9-75.5-25.1-173 0.3-11.8 5-23 13.1-31.4 12.3-12.7 37.5-36.1 68.1-50.3 3.4-1.6 7.4-1.2 10.5 1 3.1 2.2 4.7 5.9 4.3 9.6-0.1 0.7-7.8 72.9-4.9 157.6 0.1 1.9-0.4 3.8-1.3 5.4l-45.7 82.5c-1.9 3.4-5.4 5.4-9.2 5.4zm38.5-233.5c-20 12.3-36.3 27.6-45.2 36.8-4.5 4.7-7.1 10.9-7.3 17.5-1.7 61.7 9.1 113.8 16.8 142.1l32.4-58.4c-1.9-58.5 1.2-110.9 3.3-138z"/>
							</g>
						</g>
						<g id="Layer" style="opacity: .5">
							<path id="Layer" class="s1" d="m700.5 2160.5c0 0 20.6-25.2 42-39.2l-3.9 63.1-5.3-44.9c0 0-20.5 9.6-32.8 21z"/>
						</g>
						<g id="Layer" style="opacity: .5">
							<path id="Layer" class="s1" d="m2564.1 1241.1l646.2-319.1c0 0-322.1 216.7-646.2 319.1z"/>
						</g>
					</g>
					<g id="Layer">
						<g id="Layer">
							<path id="Layer" class="s5" d="m1221 2001.7c0 0-10 13.9-37.8 26.3 0 0-29.8 48.2-96.9 65.1 0 0-24.4 40.7-67.6 38.8-28-1.3-53.6-47.6-68.3-80.3q-0.4-0.8-0.4-0.8c-7.8-17.4-12.3-30.8-12.3-30.8 0 0 62.1-63.6 119.8-93.4 57.6-29.8 135.6-55.2 135.6-55.2 10.1 15.4 17.6 29.3 22.9 42 25.2 59.2 5 88.3 5 88.3z"/>
						</g>
						<g id="Layer" style="opacity: .2">
							<path id="Layer" class="s3" d="m1221 2001.7c0 0-10 13.9-37.8 26.3 0 0-29.8 48.2-96.9 65.1 0 0-24.4 40.7-67.6 38.8-28-1.3-53.6-47.6-68.3-80.3 3.2 6.4 24.3 44.5 64.4 30.6 43.8-15.3 37.2-52.7 37.2-52.7 0 0 17.2 26.8 64.9 2.3 45.3-23.3 32.1-63 30.7-67.2 1.9 3.3 17.5 28.6 43.6 7.6 27.8-22.6 21.1-59.6 21.1-59.6 0 0 1.5 0.2 3.7 0.8 25.2 59.2 5 88.3 5 88.3z"/>
						</g>
						<g id="Layer">
							<path id="Layer" class="s3" d="m1075.8 2095.2c-3.6-28.4-18.2-55-34.8-78.2 5.7 4.9 11.3 10 16.6 15.4 16.5 17.2 31.2 36.2 39.3 59 4.1 15.7-19.6 19.9-21.1 3.8z"/>
						</g>
						<g id="Layer">
							<path id="Layer" class="s3" d="m1169.7 2028.1c-3.6-28.4-18.1-55.1-34.7-78.2 5.7 4.9 11.3 10 16.6 15.4 16.4 17.2 31.1 36.2 39.2 59 4.2 15.7-19.6 19.9-21.1 3.8z"/>
						</g>
						<g id="Layer">
							<path id="Layer" class="s3" d="m938.4 2019.8c22 29.3 42.8 91.6 79 101.5 15.9 1.1 31-5.4 43.3-15.6 5.9-4.9 12.2-11.9 16.4-18.1 1.6-2.4 3.9-4.1 6.6-4.9 35.6-9.1 69.4-30.2 90.6-60.6 1.1-1.8 2.7-3.1 4.5-3.9 6.6-2.9 12.9-6.3 18.8-10.2 5.4-3.7 10.5-7.6 14.7-12.6 16.8-38.9-6.9-84.4-28.1-118.1-3.4-5-2-12 3.2-15.2 5-3.1 11.5-1.6 14.7 3.4 8.4 13.6 16.8 27.3 23.1 42.3 12.8 30.1 21.7 68 5.3 98.8-10.7 14.5-27.1 23.7-42.9 31.1l4.7-4.1c-3.4 5.2-6.6 9-10.1 13.2-24.4 27.9-57.5 47.5-93.3 56.6l6.5-4.8c-3.1 5.1-6 8.9-9.5 12.9-24.4 28.7-72.4 45.6-100.8 13.1-14.3-15-23.6-32.2-31.8-49.5-8.2-17.3-14.7-35.4-16.4-54.8-0.1-0.8 1.1-1.2 1.5-0.5z"/>
						</g>
					</g>
					<g id="Layer">
						<g id="Layer">
							<path id="Layer" class="s1" d="m1645.8 2226c-6.6 133.8-95.4 459.3-95.4 459.3l-196.9 18.5c0 0-22.5-4.5-13.2-33.1l99.9-231.2c-0.5 0.8-2.2 3.6-5.5 6.9-12.3 12.3-45.7 32.2-111.3-16.6-86.5-64.3-271.4-220.4-271.4-220.4 0 0 22.6-14.9 53.3-37.5h0.1c48-35.3 115.7-89.5 148.4-135.5l143.1 128.3c0 0 23.5-32.7 52.8-72.3 6-7.9 12.1-16.1 18.3-24.4 34.5-46 71.9-94.2 87.8-109.1 0 0 56.6 34.4 76.1 72.9 0 0 20.5 60.3 13.9 194.2z"/>
						</g>
						<g id="Layer">
							<path id="Layer" class="s6" d="m1510 2280.7l7.9-36c2.8-0.6 69.2-13.7 127.9-18.7l-2.5 34c-56.6 4.9-132.6 20.5-133.3 20.7z"/>
						</g>
						<g id="Layer">
							<path id="Layer" class="s6" d="m1416.8 2137.3c0 0 34.8 0 79.6 44.3l13.6-22.2c0 0-16.9-32.9-74.9-47.1z"/>
						</g>
						<g id="Layer">
							<path id="Layer" class="s6" d="m1524.9 2101.6l-13.6 22.4c-25.3-19.5-46.7-27.9-61.6-31.6 6-7.9 12.1-16.1 18.3-24.4 40.4 11.3 56.9 33.6 56.9 33.6z"/>
						</g>
						<g id="Layer" style="opacity: .1">
							<path id="Layer" class="s3" d="m1543.7 2203.8c0 0-65.5 146.7-109 242.6-12.3 12.3-45.7 32.2-111.3-16.6-86.5-64.3-271.4-220.4-271.4-220.4 0 0 22.6-14.9 53.3-37.5h0.1l173.6-51.5c0 0-89.8 111.4-77.9 142 11.9 30.5 157.1 153.5 181.9 148.2 24.9-5.3 160-212.5 150.1-298.3z"/>
						</g>
						<g id="Layer">
							<path id="Layer" class="s3" d="m1430.5 2435.1l99.4-232.5-0.8 4.5c1.7-40.4 3.3-81.2-0.1-121.6 0-0.2 0.3-0.2 0.3-0.1 10.4 39.8 15.9 80.6 21.1 121.4 0 1.4-0.3 2.9-0.8 4.2l-99.4 232.5c-5.8 12.6-24.9 4.8-19.7-8.4z"/>
						</g>
						<g id="Layer">
							<path id="Layer" class="s3" d="m1404.3 2156.9c18.7 18.5 36.2 38.3 50.7 60.3 0.7 1 0.4 2.3-0.6 2.9-0.7 0.5-1.6 0.5-2.2 0.1-5.9-3.3-11.3-7-16.8-10.7-16.1-11.4-31.5-23.7-45.8-37.1-10-9.8 4.4-25 14.7-15.5z"/>
						</g>
						<g id="Layer">
							<path id="Layer" class="s3" d="m1353.5 2714.5q-1 0-2.1-0.2c-1.3-0.3-13.1-3-19.8-14.4-5.1-8.8-5.6-19.7-1.5-32.5q0.2-0.5 0.4-0.9l85.2-197.1q-1.7 0.4-3.5 0.8c-27 5.8-59-4.9-95.2-31.8-85.8-63.8-270.1-219.3-271.9-220.8-2.6-2.2-4-5.5-3.8-8.8 0.2-3.4 2-6.5 4.8-8.3 1.5-1 147.1-97.2 199-170.3 1.7-2.4 4.5-4.1 7.5-4.4 3-0.3 6 0.6 8.3 2.7l134.3 120.3c27.2-37.5 123.9-170.3 153.3-197.7 3.6-3.3 8.8-3.8 12.9-1.3 2.4 1.4 59.3 36.5 80 77.1q0.4 0.7 0.6 1.4c0.9 2.6 21.1 63.8 14.5 198.2-6.6 133.5-92.2 448.3-95.8 461.6-1.2 4.3-4.9 7.4-9.3 7.8l-196.9 18.6q-0.5 0-1 0zm-3.2-40c-1.4 4.5-2.6 10.5-0.3 14.5 1.2 2.2 3.4 3.4 4.7 4l187.3-17.7c13-48.4 87.2-329.6 93.1-449.9 6.1-122.3-11-182.6-13.1-189.5-14.3-27.3-49.6-53.1-64.7-63.3-39 41.8-150.5 196.7-151.7 198.3-1.8 2.5-4.5 4.1-7.5 4.4-3 0.3-6-0.6-8.3-2.7l-134.5-120.4c-49.3 62.5-150.8 134.4-185.6 158.2 40.8 34.3 186.8 156.4 260 210.8 30.7 22.8 57.6 32.5 78 28.1 16.4-3.5 23.3-15.1 23.3-15.2 2.8-5 9-6.9 14.1-4.4 5.1 2.5 7.3 8.6 5.1 13.8z"/>
						</g>
					</g>
				</g>
				<g id="Layer">
					<g id="Layer">
						<path id="Layer" class="s6" d="m1631.9 2031.8c0 0-47.8-18.5-81.5-47.1-25.6-21.6-36.4-44.9-33.5-62.7 2-12.8 11.1-22.7 26.8-27.4 0 0-37.8-72.3 68.3-68.3 0 0-0.3 11 0.3 30.6 1 35.2 5.1 98 19.6 174.9z"/>
					</g>
					<g id="Layer">
						<path id="Layer" class="s11" d="m1631.9 2031.8c0 0-47.8-18.5-81.5-47.1-25.6-21.6-36.4-44.9-33.5-62.7 0 0 24.7 35.4 45.1 44.4 20.3 8.9 9.2-37.6-13.8-64.3l-3.4-13.8c0 0 31.6 45.4 44.3 39.6 12.6-5.8 16.6-75.7 16.6-75.7 0 0 2.6 1.6 6.6 4.7 1 35.2 5.1 98 19.6 174.9z"/>
					</g>
					<g id="Layer">
						<path id="Layer" class="s3" d="m1553.2 1889.5c6.6 12.9 11.7 26.3 14.7 41-13.9-7.4-25.4-17.4-33.6-30.9-6.4-12.6 11.9-22.4 18.9-10.1z"/>
					</g>
					<g id="Layer">
						<path id="Layer" class="s3" d="m1631.9 2042.5q-2 0-3.9-0.8c-2-0.7-49.9-19.4-84.5-48.8-27.9-23.7-41.6-51.5-36.8-74.6 2.7-13 10.8-23.2 23.2-29.6-3.6-11.5-6.6-30.2 3.6-46.3 12.1-19.3 38.7-28.3 78.9-26.7 5.9 0.2 10.5 5.1 10.3 11 0 0.8-2.3 85.8 19.7 203.1 0.7 3.8-0.7 7.7-3.7 10.2-1.9 1.6-4.4 2.5-6.8 2.5zm-30.7-205.6c-25.7 0.3-42.8 6.1-49.6 16.8-9.2 14.5 1.5 35.8 1.6 36 1.5 2.8 1.6 6.1 0.4 9.1-1.3 2.9-3.8 5.1-6.8 6-7.5 2.3-16.9 7.2-19.2 17.9-3.1 15 8.2 35.7 29.7 53.9 19.4 16.5 44.1 29.6 60.5 37.4-14.8-86.8-16.5-152.2-16.6-177.1z"/>
					</g>
				</g>
				<g id="Layer">
					<g id="Layer">
						<g id="Layer">
							<path id="Layer" class="s1" d="m1203.5 1212.3c0 0-138.7-303.5-80.3-631.3 6.3-35.2 41-58.3 75.9-50.2 68.3 15.9 185.7 69.8 325.8 244.4z"/>
						</g>
						<g id="Layer">
							<path id="Layer" class="s2" d="m1411 877.4l-179.7 245.4-1.1 1.5c0 0-0.7-0.7-1.9-2.4-2.3-3.3-6.8-10.2-12.3-22.1-14.9-31.5-37.5-97.9-49.3-224.1-18.5-197.4 11.6-271 11.6-271q-0.1 0 0 0.1c4.1 3.5 150.3 130 232.7 272.6z"/>
						</g>
						<g id="Layer">
							<path id="Layer" class="s4" d="m1411 877.4l-179.7 245.4c-1-0.3-2-0.6-3-0.9-11.6-4-18.6-9.1-18.6-9.1 0 0 2.5-4.7 6.3-13 16.5-36.1 59.3-141.5 43.5-235.7-19-114.2-79.4-255.2-81.2-259.3 4.1 3.5 150.3 130 232.7 272.6z"/>
						</g>
						<g id="Layer">
							<path id="Layer" class="s3" d="m1178.3 604.7c50.6 33.3 92.5 77.5 133.5 121.6 30.1 33.3 59.6 69.6 84.2 107.1 8.7 12.4 16.2 25.7 24.1 38.7 2.2 3.7 1.8 8.3-0.6 11.5l-180.8 246.9c-3.4 4.7-10 5.7-14.7 2.2-4.6-3.4-5.6-9.9-2.2-14.6l180.8-246.9-0.7 11.4c-30.6-50.7-66-98.6-104.1-144-38.2-46.3-80.5-88.1-119.5-133.9z"/>
						</g>
						<g id="Layer">
							<path id="Layer" class="s3" d="m1203.5 1222.7q-0.5 0-1.1 0c-3.7-0.4-6.9-2.7-8.4-6.1-1.4-3.1-139.4-310.2-81.1-637.4 3.5-19.7 15.2-37.3 31.9-48.4 16.9-11.1 37-14.8 56.7-10.2 74.4 17.3 192.3 74.4 331.6 248.1 2.9 3.7 3 8.9 0.2 12.7l-321.4 437.1c-2 2.7-5.1 4.2-8.4 4.2zm-18.6-683.1c-10 0-19.9 3-28.6 8.7-12.1 8-20.2 20.3-22.8 34.5-49.4 277.6 45.2 540.7 72.5 608.4l305.7-415.7c-133.3-164.1-244.7-218.2-315-234.5q-5.9-1.4-11.8-1.4z"/>
						</g>
					</g>
					<g id="Layer">
						<g id="Layer">
							<path id="Layer" class="s1" d="m2513.4 1312.2c0 0 20 6.7 37.1 7.9 0 0-127.8 378.5-667.6 490-539.7 111.6-721.6-199.1-721.6-199.1l33.9-16.4c0 0-29.1-17.3-50.7-35.8l43.8-20.3c0 0-25.2-28.1-37.8-44.9 0 0 8.1-2.8 18.3-8.3q0 0 0 0 0 0 0.1-0.1c13.6-7.3 30.7-19.4 36.9-36.1q0.6-1.5 1-3.1c-2.1-4-186.5-753.8 697-757.8 0 0 94-348.1 237.2-358.1 143.3-9.9 217.4 666.7 217.4 666.7 0 0 50.2 92.2 77.5 190.2q0.2 0.7 0.5 1.4c0 0 9.7 3 23.5 6.1 12.6 3 28.8 6.3 43.8 7.7 0 0 0 1.9-0.1 5-0.2 10.8-1.7 36.6-10.5 50.8 0 0 24.9 1.4 48.9-2.3 0 0-2.5 40.3-28.6 56.5z"/>
						</g>
						<g id="Layer">
							<path id="Layer" class="s14" d="m2513.4 1312.2c0 0 20 6.7 37.1 7.9 0 0-127.8 378.5-667.6 490-539.7 111.6-721.6-199.1-721.6-199.1l33.9-16.4c0 0-29.1-17.3-50.7-35.8l43.8-20.3c0 0-25.2-28.1-37.8-44.9 0 0 8.1-2.8 18.3-8.3q0 0 0 0 0 0 0.1-0.1c0.8-1.1 14.2-18.9 36.9-36.1 32.2-24.4 83-47.6 142.9-19.9 103.3 47.9 140.9 104.1 219.5 91.3 78.7-12.8 108.6-51.8 255.8-160.1 143.2-105.3 441.6-219.8 611.9-173.4q7.2 1.9 14 4.3c3.4 1.1 6.7 2.2 10 3.2 15.7 5.2 30.3 9.3 43.7 12.7-0.2 10.8-1.7 36.6-10.5 50.8 0 0 24.9 1.4 48.9-2.3 0 0-2.5 40.3-28.6 56.5z"/>
						</g>
						<g id="Layer">
							<g id="Layer">
								<path id="Layer" class="s3" d="m2434.2 1198.7c-14-5-28.1-10.7-41.3-17.8-0.2-0.1-0.3-0.3-0.2-0.5 3.8-1.3 7.9-1.4 11.8-2 11.3-0.9 22.7-1.2 34.1-0.2 5.8 0.6 10 5.7 9.4 11.5-0.5 6.7-7.5 11.2-13.8 9z"/>
							</g>
							<g id="Layer">
								<path id="Layer" class="s7" d="m1914.1 690.3c-5.3 20.6-11.8 40.8-20 60.6-0.9 2.5-4.8 1.7-4.8-0.9-0.2-10.8 0.4-21.4 1-32.1 0.9-10.6 1.6-21.2 3.2-31.6 0.9-5.8 6.2-9.7 12-8.8 6 0.9 10 6.9 8.6 12.8z"/>
							</g>
							<g id="Layer">
								<path id="Layer" class="s3" d="m2327.1 956.1c13.6 10.8 26.9 22.3 39.8 34.5 9.9 9.8-4.4 24.9-14.7 15.4-9.6-15.5-17-32.5-27.2-48.1-0.8-1.3 0.9-2.8 2.1-1.8z"/>
							</g>
						</g>
						<g id="Layer">
							<g id="Layer">
								<path id="Layer" class="s2" d="m2289 917.5l-2.7-1.7-11.7-7.3c-83.3-75.7-160-100.9-160-100.9 14.5-60.6-44.1-46.2-44.1-46.2 0 0 12-59-14.5-75.4-26.5-16.5-65 46.6-65 46.6 49.3-263.9 153.7-326.4 156.9-328.2q0.1-0.1 0.1-0.1c0 0 58.9 43.5 95.1 207.8 36.3 164.4 45.9 305.4 45.9 305.4z"/>
							</g>
							<g id="Layer">
								<path id="Layer" class="s4" d="m2286.3 915.8l-11.7-7.3c-83.3-75.7-160-100.9-160-100.9 14.5-60.6-44.1-46.2-44.1-46.2 0 0 12-59-14.5-75.4-26.5-16.5-65 46.6-65 46.6 49.3-263.9 153.7-326.4 156.9-328.2-2.3 2.5-65.1 72.8-40 149.1 23.8 72.3 159 257.4 178.4 362.3z"/>
							</g>
							<g id="Layer">
								<path id="Layer" class="s3" d="m2148 404.3c-23.9 19.2-42.3 44.8-58.5 70.6-48 77.8-71.6 170.3-88.2 259.6l-19.3-7.4c8.1-12.6 16.7-24 27.5-34.8 21.7-22.7 51.4-29.7 67.4 2.9 9.3 22.2 7.5 45.3 3.8 68.3 0 0-12.8-12.3-12.8-12.3 42.7-9.2 68.3 16.3 56.9 58.9 0 0-6.9-12.4-6.9-12.4 15.8 6.5 29.7 14 43.8 22.2 41.5 24.2 79.3 54.3 113.2 88.2 0.3 0.4-0.2 1-0.6 0.7-12.4-9.9-25-19.6-38-28.4-25.9-17.9-53.4-33.5-81.9-46.4-14.1-6.3-29-12.3-43.1-16.4-5-1.5-8-6.5-7-11.5 5.2-21.4 2.4-37.5-23.1-35.6-2.7 0.1-6 0.6-8.3 1.1-7.2 1.8-14.2-5-12.7-12.3 2.8-19 6.9-51.6-9.8-64.5-1.8-1-3.2-1.3-5.6-0.9-7.8 1.6-14.3 7.4-20.6 13.3-9.2 9.1-17.6 20.3-24.7 31.4-6.2 9.6-21.4 3.1-18.8-7.9 12.7-60.5 29.5-122.9 55.2-179.1 24.1-52.9 60.5-117.8 112.1-147.3z"/>
							</g>
						</g>
						<g id="Layer">
							<path id="Layer" class="s3" d="m1662.1 1844.5c-160 0-273.5-41.3-347.5-83-114.1-64.4-160.4-142-162.3-145.2-1.5-2.6-1.8-5.6-1-8.4 0.9-2.8 2.8-5.1 5.5-6.4l16.8-8.1c-10.4-6.9-24.1-16.6-35.9-26.6-2.7-2.4-4.1-5.9-3.6-9.4 0.5-3.6 2.8-6.6 6-8.1l31-14.4c-8.6-9.8-21.1-24.5-29-35.1-2-2.7-2.6-6.1-1.6-9.3 1-3.2 3.4-5.8 6.6-6.8 11.4-4 41.8-18.4 49-38.5-9.4-40.2-56.2-282.4 64.4-484.2 110.6-185 324.3-280.2 635.4-283.2 15.2-53.1 105.9-348.4 244.4-358.1q2-0.1 4-0.1c64.6 0 120.1 110.6 169.4 337.9 34 156.7 52.6 316.4 54.9 336.1 7.1 13.4 50.8 97.5 76.3 186.4 11 3 36.9 9.6 59.8 11.8 5.2 0.5 9.3 4.9 9.4 10.2 0.1 3.2 0.4 26.1-5.4 45.8 8.9-0.2 20.4-0.7 31.7-2.4 3.1-0.5 6.3 0.5 8.6 2.6 2.4 2.1 3.6 5.2 3.4 8.4-0.1 1.4-2 29.7-18.1 50.6 5.4 1.2 11.4 2.3 16.9 2.7 3.3 0.2 6.2 1.9 8 4.6 1.8 2.7 2.3 6.1 1.2 9.2-1.3 3.9-33.8 97.9-133.5 206.9-91.8 100.2-260.3 231.8-541.8 290-82.6 17.1-156.8 24.1-223 24.1zm-485.4-229.3c15.9 22.3 62.6 80 149.4 128.7 101.3 56.9 279.9 112.8 554.7 56 276.1-57.1 440.9-185.8 530.6-283.7 76.5-83.5 112.6-159 124.5-187.5-13.5-2.5-25.2-6.3-25.8-6.6-3.9-1.2-6.6-4.6-7.1-8.7-0.5-4 1.4-7.9 4.9-10.1 12.9-8 18.8-24.2 21.5-35.6-19.4 1.7-36 0.8-36.8 0.8-3.7-0.2-7-2.3-8.8-5.6-1.7-3.3-1.5-7.2 0.4-10.4 6.1-9.9 8.3-28.5 8.8-41-29.1-4-58.3-12.6-59.6-13-3.5-1-6.2-3.8-7.1-7.2-26.7-96.3-76.6-188.6-77.1-189.5-0.6-1.2-1.1-2.5-1.2-3.8-0.2-1.7-18.9-170.7-54.8-336.2-61.7-284.4-121.5-323.3-151.4-321.2-134.3 9.4-227 347-227.9 350.4-1.2 4.5-5.3 7.7-10 7.7-284.2 1.3-486 80.2-599.8 234.6-157.6 213.7-89.3 502.1-87.4 509.2 0.7 2.1 0.8 4.2 0.2 6.3-6.9 25-33.4 41.2-49.7 49.1 12.6 15.4 28.7 33.4 28.9 33.6 2.2 2.5 3.1 5.8 2.5 9.1-0.7 3.3-2.9 6-5.9 7.4l-28.4 13.2c17.8 13.4 36 24.3 36.2 24.4 3.3 2 5.3 5.6 5.1 9.5-0.2 3.8-2.4 7.3-5.9 8.9z"/>
						</g>
					</g>
					<g id="Layer">
						<g id="Layer">
							<path id="Layer" class="s1" d="m1222.6 1115.3c0 0-53-260.9 9.2-394.5 10.5-22.6 38.6-30.9 59.8-17.7 33.8 21.1 88.8 63.6 156.2 145.9z"/>
						</g>
						<g id="Layer">
							<path id="Layer" class="s2" d="m1245.5 1045.3c0 0-27.2-153.3 3.7-246.1 2.4-7.2 11.1-9.9 17.1-5.4 21.8 16.3 69.1 55.8 104.1 114.7l-124.4 139.3"/>
						</g>
						<g id="Layer">
							<path id="Layer" class="s3" d="m1222.6 1126q-1.4 0-2.7-0.3c-3.9-1-7-4.2-7.8-8.2-2.2-10.8-52.9-265.9 10-401.2 6.3-13.5 18.1-23.7 32.4-28 14.4-4.3 30-2.2 42.7 5.8 34.9 21.7 90.8 65 158.9 148.1 3.2 4 3.2 9.8-0.1 13.7l-225.3 266.3c-2 2.5-5 3.8-8.1 3.8zm46.9-418.5c-2.9 0-5.9 0.4-8.9 1.3-8.5 2.5-15.4 8.6-19.2 16.5-49.5 106.6-23.2 300.5-12.3 365.8l204.8-242.2c-63.7-76.4-115.4-116.5-147.9-136.7-5-3.1-10.7-4.7-16.5-4.7z"/>
						</g>
					</g>
					<g id="Layer">
						<g id="Layer">
							<path id="Layer" class="s1" d="m2366.2 1377.1c-19.7 105.1-109.6 368.2-518.4 461-233 53-391 9.4-492.9-62.7q-0.2-0.1-0.2-0.1c-83-58.8-128.9-136.4-148.2-196.2-4.6-14.4 0.2-30 11.8-39.5l33.6-27.5c0 0-58.7-66.3-24-145.9 0 0-85.2-278.7 117.1-458.3 217.7-193.3 495.6-146.6 495.6-146.6 0 0 43-159.6 83.5-189.3 10-7.2 24-9.4 40.9-4.9 73.2 19.8 199.7 165.1 275.3 565.2 0 0 90.3 74 50 186.5 0 0 16.1 11.6 43.8 15.1 21.2 2.6 36 22.2 32.1 43.2z"/>
						</g>
						<g id="Layer">
							<g id="Layer">
								<path id="Layer" class="s2" d="m2228.3 1330.3c1.2 6.9 1.6 14.6 1 23.1-0.6 8.6-3.1 17.2-7.3 25.5-31.6 63.7-157.7 112.6-233.2 39.5-1.4-1.4-0.7-3.9 1.2-4.3 25.5-6 148.5-39.7 175.2-142.8 0.4-1.3 1.6-2.1 3-1.8 10.6 2.5 52.3 15.1 60.1 60.8z"/>
							</g>
							<g id="Layer">
								<path id="Layer" class="s2" d="m2162.5 1479.5c-18.8 8.6-79.2 30.6-153.5-2.7-4-1.8-8.3 1.7-7.3 6 4.1 18.8 17.5 58.2 57.9 76.6 54.9 24.9 119.8-15.8 110.4-75.9-0.5-3.5-4.3-5.5-7.5-4z"/>
							</g>
							<g id="Layer">
								<path id="Layer" class="s2" d="m1397.2 1573.6c-14.7-1.6-86.5-11.8-108.9-68-0.2-0.7-1-1.1-1.8-0.8-6.6 2.5-35.6 15.5-28.4 51.6 8.2 41.6 97.9 72.2 140.1 19.5 0.8-0.9 0.2-2.2-1-2.3z"/>
							</g>
							<g id="Layer">
								<path id="Layer" class="s2" d="m1304.7 1622.7c11.2 3.5 46.8 11.6 86.3-12.5 2.2-1.3 4.8 0.4 4.6 2.9-1 10.9-5.7 34.1-27.2 47.3-29.2 18-68.6-0.3-67.6-34.9 0-2 2-3.4 3.9-2.8z"/>
							</g>
							<g id="Layer">
								<path id="Layer" class="s2" d="m1716.7 984.9c8.5 88.6-59.3 172.7-150.5 184.9-89.9 12.1-164.8-51-168.2-138.3-2-49.1 19.2-95.8 53.7-128.8-10.4 19.3-15.9 41.5-14.9 64.5 3 63.1 48.8 113.3 110.2 104.6 62-8.8 114.1-73.8 108.6-137.7-2.5-30-16.2-55.4-36.3-72.4 52.3 17.5 91.7 63.2 97.4 123.2z"/>
							</g>
							<g id="Layer">
								<path id="Layer" class="s2" d="m1653 1219.3c0 0 4.9-54.4 83.2-104.9 78.3-50.6 69.6-190.6 3.9-237.8 0 0 115.1-22.5 137.6 109.7 22.6 132.2-132.4 177.8-224.7 233z"/>
							</g>
							<g id="Layer">
								<path id="Layer" class="s2" d="m1484.6 1242.2c0 0-24.9-54.7-84.6-83.8-59.7-29.1-81.7-126.8-36.5-176.6 0 0-98.9 28.1-68.1 137.4 30.1 107 124.8 86.6 189.2 123z"/>
							</g>
							<g id="Layer">
								<path id="Layer" class="s2" d="m1631.8 1165.4c1-0.7 2.3 0.4 1.8 1.5-3.6 8-10.1 27.1-4.1 51.8 8.1 32.8 18.8 65.9-13.8 72.7-36.6 7.5-56.8-77.3 16.1-126z"/>
							</g>
							<g id="Layer">
								<path id="Layer" class="s2" d="m1496.6 1202.8c-1-0.3-1.9 1-1.2 1.8 5.1 5.9 15.3 20.7 16.1 43.3 1.1 30.2-0.1 61.3 29.6 58.8 33.1-2.8 29.8-80.6-44.5-103.9z"/>
							</g>
							<g id="Layer">
								<path id="Layer" class="s2" d="m1904.9 823.1c26.7 11.7 97.3 44.1 160 84.2 12.1 7.8 27.3-3.2 23.9-17.1-13.5-53.8-46.9-154.5-123.2-244.5-7.7-9.2-22.4-6.9-26.8 4.3-12.2 30.5-32.4 88.1-43.1 156-1.1 7.1 2.6 14.1 9.2 17.1z"/>
							</g>
						</g>
						<g id="Layer" style="opacity: .1">
							<path id="Layer" class="s3" d="m2366.2 1377.1c-19.7 105.1-109.6 368.2-518.4 461-233 53-391 9.4-492.9-62.7 5.5 2.9 177.3 74.6 410.2 26.8 238.1-48.9 406.7-140.9 512.2-359.9 6.3-13.1 1.2-28.8-11.5-35.8-11.3-6.3-26.3-15.3-43.8-27.6 4.2-8.3 6.7-16.9 7.3-25.5 0.6-8.5 0.2-16.2-1-23.1 11.1-21.7 21.3-52.4 18.9-90.2-4.8-77.7-79.9-127.1-79.9-127.1 0 0-13.4-404.5-202.3-545.9 73.2 19.8 199.7 165.1 275.3 565.2 0 0 90.3 74 50 186.5 0 0 16.1 11.6 43.8 15.1 21.2 2.6 36 22.2 32.1 43.2z"/>
						</g>
						<g id="Layer">
							<path id="Layer" class="s4" d="m2228.3 1330.3c1.2 6.9 1.6 14.6 1 23.1-0.6 8.6-3.1 17.2-7.3 25.5-5.7-4-11.8-8.4-18-13.1 0 0 12.7-12.7 24.3-35.5z"/>
						</g>
						<g id="Layer">
							<path id="Layer" class="s2" d="m1752.8 1532.8c-34.2-19.4-46.7-55-46.8-55.3-28.8-84.8-6.2-159.5 60.3-199.7 52.5-31.8 101.6-45.6 141-56.7 9.6-2.7 18.7-5.2 27-7.6 39.7-11.5 69.9-44.5 76.4-85.3 0.5-3.1 1.1-6.2 1.7-9.1 12.7 5.4 38.1 20.1 49.5 50.8l0.1 0.6 0.1 0.2c10.6 29.9 24.9 87.4 1.4 136.8-15.3 32-43.3 55-83.2 68.4-25 8.4-48.2 15.6-68.6 21.9-81 25.3-120.8 38.8-140.4 69.5l-1.1 1.7-0.2 0.4c-1.5 2.5-2.8 5.2-4.1 8l-0.5 1.1c-7.8 18-11.2 40.8-12.6 54.3z"/>
						</g>
						<g id="Layer">
							<path id="Layer" class="s2" d="m1487.3 1549.2c-29-19.1-78.3-37.3-109.5-40.9-16.5-1.9-35-4.1-55.4-8.8-41.3-9.6-69.2-49.6-78.5-112.9v-0.4l-0.1-0.3c-7.4-30.2 2.1-57.7 9.3-72.7 6.1 7 13.2 13.2 21.3 18.6 14.6 9.6 27.9 13.7 31.8 14.8-0.1 0-0.3-0.1-0.3-0.1 6.6 2.3 13.2 2.6 24 3.1 19 0.9 45.1 2.1 88.5 15.9 43.1 13.6 82.9 53.4 93.1 110.5 0.3 11.8-2.4 10.2-5.5 23.2-2.1 9-4.8 17.6-10.2 27.4-4.1 7.5-6.4 16.8-8.5 22.6z"/>
						</g>
						<g id="Layer">
							<path id="Layer" class="s3" d="m1742.4 1469.9c-2.5 6-11 5.9-13.1-0.3-12.7-37.3-30.2-122.4 49.8-170.8 116.2-70.3 213.3-47.2 245.5-123.9 2.4-5.9 10.7-5.8 13 0.2 15.2 40.8 40.7 142.1-65.1 177.5-131.4 43.9-204 53.6-230.1 117.3z"/>
						</g>
						<g id="Layer">
							<path id="Layer" class="s3" d="m1478.9 1516.3c5.5 3.9 13 0.3 13.4-6.5 1.7-30.3-4-96.7-80.7-121.1-83.1-26.3-96.6-3.4-132.7-30-5.9-4.3-14 0.4-13.4 7.8 2.9 33.3 14.6 98.4 61.9 109.3 59.5 13.7 101.5 4.2 151.5 40.5z"/>
						</g>
						<g id="Layer">
							<g id="Layer">
								<path id="Layer" class="s3" d="m1851.2 762.7l-15 53.7c-0.8 3.2-5.7 2.5-5.6-0.7l-0.6-55.8c0.7-16.2 24.8-13.1 21.2 2.8z"/>
							</g>
							<g id="Layer">
								<path id="Layer" class="s3" d="m1244.8 1349.5c-26 65.8-19.8 119.1 30.8 170.4 0.1 0 0 0.1 0 0.1-48.4-22.3-72.5-77.3-56.3-128.1 4.8-16.1 12.4-31.2 23.5-43.7 0.9-1.1 2.6 0.1 2 1.3z"/>
							</g>
							<g id="Layer">
								<path id="Layer" class="s3" d="m2218.4 1120c87.1 39.1 119.4 140.6 66.3 221-1.8 2.8-5.6 3.6-8.3 1.7-2.4-1.5-3.3-4.4-2.4-7 6.5-19.3 11.5-38.6 13.5-57.9 6.9-60.4-27.4-114.7-71.8-153-2.6-1.8-0.2-6.2 2.7-4.8z"/>
							</g>
							<g id="Layer">
								<path id="Layer" class="s3" d="m1530.8 1594.7c-16.2-5.8-33.5-16.6-41-37-3-8.2 0.1-17.6 7.4-22.5 17.8-11.8 58.4-31.7 125.4-26.2 10 0.9 17.7 9.4 17.6 19.5-0.3 16.5-8.4 41.4-47.9 61.7-19.1 9.8-41.2 11.7-61.5 4.5z"/>
							</g>
							<g id="Layer">
								<path id="Layer" class="s1" d="m1586.3 1531.7c1 5.2-13.4 12.5-32.3 16.4-18.9 3.9-35 2.9-36.1-2.2-1.1-5.2 13.4-12.5 32.3-16.4 18.8-3.9 35-2.9 36.1 2.2z"/>
							</g>
							<g id="Layer">
								<path id="Layer" class="s3" d="m1491.6 1562.3c-10.2-14.4-5.9-32.8 1.7-46.6 7.4-11.8 15.8-22.9 21.1-35.9 11-25.2 17.7-53.5 13.7-81.2 14.2 34.1 6.5 74.5-9.9 106.6-9.2 16.6-22.9 33.3-20.1 53.2 1.3 4.3-3.6 7.4-6.5 3.9z"/>
							</g>
							<g id="Layer">
								<path id="Layer" class="s3" d="m1564.3 1560.1c4.7 38.2 14.5 75.4 25.5 112.4 0.3 0.8-0.9 1.5-1.5 0.8-27.4-30.3-40.4-71.1-45.3-111.1-0.9-14 19.5-15.9 21.3-2.1z"/>
							</g>
						</g>
						<g id="Layer">
							<path id="Layer" class="s3" d="m1391.3 870.9c27.3-29.8 62.9-49.3 99-66.4 109-50.5 232.8-70 352.1-53.7 0.1 0-12.1 7.8-12.1 7.8 15.9-55 32.7-109.6 60.1-160.3 10.2-17.9 24.1-39.2 46.4-43 42.6-6.5 78.8 24.5 106.5 52.2 99 108.6 148.7 272 183.7 412.2 9 36.7 16.5 73.6 23.8 110.6l-3.8-6.3c3.9 3.4 7 6.4 10.2 9.7 37.8 39 60 94.6 52.6 149l-2.3 13.5c-1.1 7.7-5.2 18.5-7.2 26.1l-3.8-12.2c0.9 0.6 2.9 1.8 4.5 2.6 12.9 7.5 27.7 9.2 42.1 12.2 22.2 5.9 37.8 29.6 33.8 52.5-1.5 9.1-3.5 17.8-5.7 26.8-60.9 248.6-285.7 394.4-524.1 445-69.6 15.4-141 24.5-212.4 22.8-186.2-1.6-373.2-101.7-436.5-284.4-9.1-21.3-2.5-45 16.3-58.6l10.2-8.4 20.5-16.7-1.3 15.3c-35.6-43-49-105.3-25.7-157.2 0-0.2-0.5 7.4-0.5 7.3-40.3-147.9-17.4-321.5 91.4-435.3 15-15.9 32-31 52.2-40-9.6 13.7-20.3 25.3-31.4 37.3-47.4 50.1-80.6 113-96.1 180.2-17.2 72.2-16.3 148.3-2.6 221 2 10.3 4.3 21 7 30.6 0.7 2.6 0.5 5.1-0.5 7.4-17.3 39.1-10.7 84.7 12 120.2 4.6 9.7 20.1 19.5 9 29.7l-20.5 16.8-10.2 8.3-2.6 2.1c-8 6.3-11.9 17.6-9 27.4 2.1 5.7 3.9 12.1 6.4 17.7 90.1 219.6 324 283.6 542.4 249.9 162.2-24.4 326.2-83.1 444.8-199.7 73.1-71.8 125.6-165.1 145.3-265.9 3.6-13.3-4.7-28.1-18.2-31.6-8.6-1.9-17.5-2.7-26-5.5-6.9-2.1-13.8-4.9-20.2-8.3-2.3-1.3-4.2-2.3-6.9-4.2-4.1-2.8-5.4-7.9-3.8-12.3 1.8-6.7 5.3-16.4 6.4-23.2 4.7-23.4 4.3-48.2-2.6-71-8.6-30.7-27-59.2-50.7-80.5-1.9-1.6-3.1-3.8-3.5-6.1-7.2-36.7-14.6-73.3-23.5-109.6-29.5-126.4-112.8-398.8-242.6-446.8-29.2-8.8-41.3 7.1-54.7 30.9-26.1 48.4-42.8 102.4-58.1 155.3-1.4 5.4-6.7 8.6-12.1 7.8-18.6-2.4-38.4-3.6-57.4-4.1-96.9-2-194.7 14.6-284.2 52.2-36.5 15.2-69.4 35.2-105.9 50.9z"/>
						</g>
					</g>
				</g>
				<g id="Layer">
					<g id="Layer">
						<g id="Layer">
							<path id="Layer" class="s1" d="m2676.4 2255.1l-244.9 156.4-13.6 8.7c0 0-137.1-137.2-222.6-202.8-0.1-0.1-0.1-0.1-0.1-0.1 0 0 95.5 217.8 138.2 289.4 42.8 71.5 80.5 147.1 35.8 175.9-33.8 21.8-248-16.6-440.6-43.1-62.3-8.5-122.4-15.9-173.3-19.5 0 0-16.4-3.5-15.4-30.8 0.8-20.6 47.2-156.9 41.4-360.6-1.9-66.7-9.4-140.6-26-220.1 0 0 73.2-124.9 232.8-146.9 159.4-22 435.8 192.7 688.3 393.5z"/>
						</g>
						<g id="Layer">
							<g id="Layer">
								<path id="Layer" class="s6" d="m2149.5 2183.8l-41.2 20-29.1 14.2c-2.2 1.1-4.7 1.6-7.1 1.5-168.7-7.8-285.8 23.1-287 23.4l-7.6-28.5c4.9-1.3 121-31.9 292.2-24.5l25.1-12.3 36.4-17.7 5.4-2.6 6.5 13.2z"/>
							</g>
						</g>
						<g id="Layer">
							<path id="Layer" class="s6" d="m2372.1 2038.6c-0.6 0.3-1.2 0.4-1.9 0.5-41.4 3.8-136.5 19.9-191.6 86.2-2.3 2.8-6.3 3.4-9.3 1.4l-19.8-13.5c-3.2-2.2-3.9-6.6-1.8-9.7 13.3-19.2 63.9-78.7 184.7-89.7 5.9-0.5 12-0.9 18.2-1.2 1.5-0.1 3 0.4 4.3 1.2l18.6 12.6c4.8 3.3 3.6 10.4-1.4 12.2z"/>
						</g>
						<g id="Layer">
							<path id="Layer" class="s6" d="m2283.3 1974.3c-5.5 0.2-12.2 0.5-19.9 1.3-35.5 3.5-90.4 15.5-126.7 54-1.9 1.9-4.9 2.2-7 0.6l-14.1-11c-2.3-1.8-2.7-5-0.9-7.3 9.4-11.8 40.9-44.8 107.7-55.1 14.2-2.2 30-3.4 47.5-3.1 1.1 0 2.3 0.4 3.2 1.1l13.2 10.2c3.9 3 1.8 9.1-3 9.3z"/>
						</g>
						<g id="Layer" style="opacity: .1">
							<path id="Layer" class="s3" d="m2372.5 2680.2c-1 0.9-2.1 1.7-3.3 2.4-33.8 21.8-248-16.6-440.6-43.1-34-48.9-55.5-86.2-55.5-86.2 295-42.4 312.2-164.3 273.4-265-10.8-28-24.2-57-38.2-84.5l41.2-20-6.4-13.2 37.1 33.2c0 0 0 0.1 0.1 0.1 0.8 3.9 28.9 127.3 89.5 245.4 56.8 110.6 86.4 155.1 102.7 230.9z"/>
						</g>
						<g id="Layer">
							<path id="Layer" class="s15" d="m2131.2 2159.9l-36.4 17.7c-31.6-59.3-61.3-105.4-61.3-105.4z"/>
						</g>
						<g id="Layer" style="opacity: .1">
							<path id="Layer" class="s3" d="m2373.5 2026.4l-18.6-12.6c-1.3-0.8-2.8-1.3-4.3-1.2-6.2 0.3-12.3 0.7-18.2 1.2-22.2-13.3-45.6-26.5-69-38.2 7.7-0.8 14.4-1.1 19.9-1.3 4.8-0.2 6.9-6.3 3-9.3l-13.2-10.2c-0.9-0.7-2.1-1.1-3.2-1.1-17.5-0.3-33.3 0.9-47.5 3.1-22.6-9.5-44.7-16.7-65-20.8-123.5-24.4-373 54.3-379.8 56.4 126.1-67.8 388.6-90.3 388.6-90.3 134.9 42.9 303 203.8 308.2 208.8-2.7-2.2-45.2-35.2-102.3-72.3 5-1.8 6.2-8.9 1.4-12.2z"/>
						</g>
						<g id="Layer">
							<path id="Layer" class="s10" d="m2286.3 1965c3.9 3 1.8 9.1-3 9.3-5.5 0.2-12.2 0.5-19.9 1.3-13.7-6.8-27.5-13.2-41-18.8 14.2-2.2 30-3.4 47.5-3.1 1.1 0 2.3 0.4 3.2 1.1z"/>
						</g>
						<g id="Layer">
							<path id="Layer" class="s10" d="m2372.1 2038.6c-12.6-8.1-25.9-16.5-39.7-24.8 5.9-0.5 12-0.9 18.2-1.2 1.5-0.1 3 0.4 4.3 1.2l18.6 12.6c4.8 3.3 3.6 10.4-1.4 12.2z"/>
						</g>
						<g id="Layer">
							<path id="Layer" class="s10" d="m2149.5 2183.8l-41.2 20c-4.4-8.9-9-17.7-13.5-26.2l36.4-17.7 11.9 10.6z"/>
						</g>
						<g id="Layer">
							<path id="Layer" class="s3" d="m2188.1 2225.3c-26.7-24.4-53-49.4-79-74.6-22.9-22.5-56-53.2-76-78-0.5-0.5 0.3-1.4 0.9-1 15.3 10.1 29.6 21.2 43.8 32.6 40.6 33.5 85.3 70.4 124.6 105.1 10.4 9.5-3.6 25.3-14.3 15.9z"/>
						</g>
						<g id="Layer">
							<path id="Layer" class="s3" d="m2326.1 2699.7c-55.3 0-150.3-13.4-279.5-32.4-102.9-15.1-209.2-30.7-292-36.7q-0.8 0-1.5-0.2c-1-0.2-25.2-5.7-23.9-41.6 0.2-5.5 2.5-15.1 6.2-31.1 17.8-76.5 65.2-279.7 9.5-547-0.6-2.6-0.1-5.3 1.2-7.6 3.1-5.3 77.8-129.6 240.5-152.1 156.6-21.6 408.1 166.5 696.5 395.8 2.7 2.1 4.2 5.4 4 8.9-0.2 3.4-2 6.6-4.9 8.4l-258.5 165.1c-4.2 2.7-9.8 2.1-13.3-1.5-1.2-1.2-105.2-104.9-187.4-174.2 29.7 66.4 88.9 196.2 119.6 247.7 31.8 53.3 91.1 152.6 32.4 190.4-8.7 5.6-25.1 8.1-48.9 8.1zm-568.6-90.3c83.4 6.1 189.5 21.7 292.2 36.8 136.1 19.9 290.3 42.6 313.7 27.4 36.5-23.4 0.7-94.8-39.1-161.5-42.6-71.3-134.9-281.5-138.8-290.4-2-4.5-0.7-9.7 3.2-12.7 3.8-3.1 9.2-3.1 13-0.1 74.9 57.4 190.1 170.3 217.7 197.7l238.7-152.4c-218.3-173.6-511.2-403.8-668.6-382-137.7 19-209.9 118.8-222.8 138.4 55.2 269.8 7.5 474.6-10.5 551.9-2.9 12.7-5.5 23.6-5.6 27.1-0.5 13 3.8 18.4 6.9 19.8z"/>
						</g>
					</g>
					<g id="Layer">
						<g id="Layer">
							<path id="Layer" class="s6" d="m2312.9 1984.7c0 0-86.9-58.5-146.7-82.6 0 0-216.5-1-410.9 106.4 0 0 0.2-1.4 0.5-4 3.9-27.9 35.1-192 232.3-275.6 35.4-15 66.7-25.4 94.3-32q4.9-1.2 9.7-2.1c0.1-0.1 0.1-0.1 0.2-0.1 131.9-27.7 174.4 36.5 179 102.1q0.1 0.5 0.1 1c0 0 45.4 18 68.7 54.8 19.6 30.8 23.7 74.7-27.2 132.1z"/>
						</g>
						<g id="Layer">
							<path id="Layer" class="s11" d="m2158.5 1716.3c-22.2-24.3-51.2-23.9-66.2-21.6 131.9-27.7 174.4 36.5 179 102.1-23.2-7.8-49.5-10.1-76.1-5.1-53.2 9.8-107.7 23.1-137.9 30.7-3.3 0.9-5.1-3.7-2.1-5.4 41.7-23.1 126.8-74.9 103.3-100.7z"/>
						</g>
						<g id="Layer">
							<path id="Layer" class="s11" d="m2312.9 1984.7c0 0-86.9-58.5-146.7-82.6 0 0-216.5-1-410.9 106.4 0 0 0.2-1.4 0.5-4 89.2-86.6 307.1-163.3 435.7-151 145.3 13.9 134.7 96.4 134.7 96.4 0 0 20.1 14 23.1-54.6 0.7-15.4-2.7-29.8-9.2-42.7 19.6 30.8 23.7 74.7-27.2 132.1z"/>
						</g>
						<g id="Layer" style="opacity: .5">
							<path id="Layer" class="s1" d="m1824.4 1909.2c0 0 68.5-145.8 258-183 0 0-81 41.6-142.6 85.5-36.6 26.1-115.4 97.5-115.4 97.5z"/>
						</g>
						<g id="Layer">
							<path id="Layer" class="s3" d="m2265.6 1806.8c-8.5-5.1-19.4-7.2-29.5-8.6-29-3.6-59-0.1-87.7 5.2l-17.6 3.6c-1.4 0.3-2.1-1.8-0.7-2.3 34.4-12.2 70.1-22.7 107.1-23 13.6 0.1 27.4 0.9 40.1 7.2 11.6 7.9 0.4 25.3-11.7 17.9z"/>
						</g>
						<g id="Layer">
							<path id="Layer" class="s3" d="m1755.3 2019.2c-2 0-4-0.6-5.8-1.7-3.3-2.2-5.2-6-4.8-9.9 0.2-2 20-195.6 239.2-288.5 110.2-46.7 192.2-54.3 243.9-22.5 38.4 23.7 50.6 63 53.8 94 17.8 8.5 68.5 36.4 80.3 86.1 8.6 36-5.2 74.8-41 115.1-3.6 4-9.5 4.8-14 1.8-0.8-0.6-84.7-56.9-142.7-80.8-22.3 0.3-224 5.8-403.7 105.1-1.6 0.9-3.4 1.3-5.2 1.3zm395.1-320.3c-42.2 0-95.6 13.3-158.2 39.8-165.7 70.3-210.9 199.8-222.5 250.1 187.9-96.4 391.3-97.4 396.5-97.4q0.1 0 0.1 0c1.3 0 2.7 0.3 3.9 0.8 50.2 20.2 117.7 63.3 140.7 78.4 26.4-32.1 36.6-62 30.3-88.9-11.5-48.5-73.1-73.7-73.7-74-3.8-1.5-6.4-5.1-6.7-9.2-1.8-26.8-10.9-63.1-44.2-83.7-17.3-10.6-39.5-15.9-66.2-15.9z"/>
						</g>
					</g>
					<g id="Layer">
						<g id="Layer">
							<path id="Layer" class="s6" d="m2367.1 2733.5c-1 5.6-1.9 8.8-1.9 8.8 0 0-89.4 78.5-355.9 56.6-73.2-5.9-125.1-18.7-161.8-34.2-97.2-40.6-89-99.3-89-99.3-4.7-47.7 0-83.5 0-83.5 374.5-116.7 597.1 39.7 597.1 39.7 19.3 49.2 14.7 93.6 11.5 111.9z"/>
						</g>
						<g id="Layer">
							<path id="Layer" class="s11" d="m2367.1 2733.5c-1 5.6-1.9 8.8-1.9 8.8 0 0-89.4 78.5-355.9 56.6-73.2-5.9-125.1-18.7-161.8-34.2 108.5-54 275.2-133.8 275.2-133.8 0 0 170.1 14.2 244.4 102.6z"/>
						</g>
						<g id="Layer" style="opacity: .5">
							<path id="Layer" class="s1" d="m2033.5 2538.7c0 0 40 12.7 39.2 38.5-0.7 25.9-54.4 44.2-54.4 44.2 0 0 139-14.8 248.9 45.6 0 0-82-82.7 7.5-85.2 0 0-90.7-33-241.2-43.1z"/>
						</g>
						<g id="Layer">
							<path id="Layer" class="s3" d="m1753.5 2656.1c112.5-53.9 279.7-54.4 401-32.4 44.1 8.3 88.5 21.7 128.6 42.1 11.5 6 22.8 12.3 33.4 19.7 4.9 3 39.9 28.8 27.8 27.3-20.8-14-44-24.3-67.2-33.6-40.6-15.5-83.7-26.5-126.5-33.6-116.2-17.7-259.2-16.3-370.7 22.3-5.8 2.2-11.9 4.5-16.8 7-12.1 5.6-21.6-12-9.6-18.8z"/>
						</g>
						<g id="Layer">
							<path id="Layer" class="s3" d="m2099.7 2813.5c-27.9 0-58.2-1.2-91.2-3.9-263-21.6-269.4-126.1-269.2-138.5-4.6-49.1 8.4-90.7 9-92.5 1.1-3.3 3.7-5.9 7-6.9 195.8-61 349.9-46.8 444.7-24.1 103.2 24.7 159.4 63.7 161.8 65.3 1.7 1.2 3 2.9 3.8 4.9 26.2 66.8 10.6 124.9 9.9 127.3-0.5 2-1.6 3.8-3.2 5.2-3.3 2.9-74.6 63.2-272.6 63.2zm-332.5-223.1c-3.2 12.2-10 44-6.6 79.3q0.1 0.9 0 1.7c0 0.8-0.7 96.3 249.6 116.9 233.8 19.2 329.3-40.5 345.5-52.2 2.6-12.2 9.8-57.2-8.8-107.4-25.8-16.4-239.7-142.2-579.7-38.3z"/>
						</g>
					</g>
					<g id="Layer">
						<g id="Layer">
							<path id="Layer" class="s5" d="m2135 2631.6c0 0-22.6 190.8-33.2 239.3-6.1 28-111.3 24-204 13.2-66.9-7.7-127.4-18.8-139.3-23.9-28.5-11.9-24.5-37.1-24.5-37.1l24.5-157.7c3-1.5 6-2.9 8.9-4.2 145-66.5 367.6-29.6 367.6-29.6z"/>
						</g>
						<g id="Layer" style="opacity: .2">
							<path id="Layer" class="s3" d="m2108.3 2628c-3.4 28.8-23 190.8-32.7 234.9-5.4 24.8-88 24.5-171.1 16.7 15.6-10.2 35.9-21.8 43.2-38.9 17.9-41.8 42.8-178 14.8-183.9-27.9-6-193.7 5-193.7 5l-1.4-0.6c114.5-52.5 277.4-40.5 340.9-33.2z"/>
						</g>
						<g id="Layer">
							<path id="Layer" class="s3" d="m2014.9 2903c-97.4 0-238.6-23.7-260.5-32.9-28.7-12-32.8-37.1-31-48.6l24.5-157.8c0.6-3.4 2.7-6.3 5.8-7.9 145.9-72.9 373.5-36.3 383.1-34.7 5.6 0.9 9.5 6.1 8.8 11.8-0.9 7.8-22.8 191.9-33.4 240.2-1.6 7.7-7 13.9-15.8 18.4-15.9 8.3-45.7 11.5-81.5 11.5zm-246.7-230.5l-23.7 152.3c-0.2 1.6-1.6 17.3 18.1 25.6 23.7 9.9 272.7 48.8 324 22.2 3.2-1.7 4.6-3.2 4.8-4 8.9-40.9 26.9-187.5 31.8-227.9-45.3-6.1-232.1-26.6-355 31.8z"/>
						</g>
					</g>
					<g id="Layer">
						<g id="Layer">
							<path id="Layer" class="s6" d="m1756.5 2843.6c-1.8 15.8-4.6 41.2-6.5 66.1-0.6 8 3.7 15.7 10.8 19.3 19.3 9.6 66.1 26.4 166 33.3 86 6 123.9 0.1 140.5-5.7 7.5-2.5 12.8-9.4 13.4-17.3l5.3-69.9c0.7-9.4-5.2-18.1-14.3-20.7-38.6-11.3-147.3-37.1-297.1-22.6-9.4 0.9-17 8.1-18.1 17.5z"/>
						</g>
						<g id="Layer">
							<path id="Layer" class="s10" d="m1921.9 2821.8c0 0 12.9 73.6-48.8 86.5 0 0 77.9-9.4 169.4 30.4l9.4-94.8z"/>
						</g>
						<g id="Layer">
							<path id="Layer" class="s3" d="m1990.7 2975.4c-19.1 0-40.7-0.8-64.6-2.4-102-7.1-150.3-24.6-170-34.5-11.1-5.5-17.7-17.1-16.7-29.5 1.8-24.8 4.5-49.9 6.5-66.6 1.7-14.5 13.1-25.6 27.7-27 151.1-14.5 260.9 11.3 301.1 23 13.8 4.1 23.1 17.4 22 31.8l-5.4 69.9c-0.9 12.2-9 22.7-20.6 26.7-16.7 5.7-43.9 8.6-80 8.6zm-223.6-130.5c-1.9 16.5-4.6 41.3-6.4 65.6-0.3 3.7 1.7 7.3 4.9 8.9 18.3 9.1 63.6 25.5 162 32.3 87.9 6 123.1-0.6 136.2-5.1 3.5-1.3 5.9-4.4 6.2-8.1l5.4-69.9c0.3-4.4-2.5-8.5-6.7-9.7-39-11.4-145.7-36.4-293.1-22.2-4.5 0.4-7.9 3.8-8.5 8.2z"/>
						</g>
					</g>
					<g id="Layer">
						<g id="Layer">
							<path id="Layer" class="s1" d="m2057.8 2952.4l-60.4 314.8c-136.2 60.6-238.9-34.9-238.9-34.9l4.6-97.3 0.9-20 7.3-154.4 1.5-31.1c0.2-3.7 2.8-7 6.4-7.9 140.1-35.2 248 9.2 273.9 21.5 3.5 1.7 5.4 5.5 4.7 9.3z"/>
						</g>
						<g id="Layer" style="opacity: .1">
							<path id="Layer" class="s3" d="m2057.8 2952.4l-60.4 314.8c-136.2 60.6-238.9-34.9-238.9-34.9l4.6-97.3c1.7 26.5 16.2 69.2 93.1 61.6 79.9-7.9 107.1-104.8 121.4-177.4 7.6-38.9-21.2-75.5-60.9-77.4-38.5-1.9-89.3 1.1-145.4 18.8l1.5-31.1c0.2-3.7 2.8-7 6.4-7.9 140.1-35.2 248 9.2 273.9 21.5 3.5 1.7 5.4 5.5 4.7 9.3z"/>
						</g>
						<g id="Layer">
							<path id="Layer" class="s3" d="m1906.5 3297.8c-91.8 0-154.5-56.9-155.3-57.7-2.3-2.1-3.5-5.2-3.4-8.3l14.3-302.8c0.4-8.4 6.4-15.7 14.5-17.7 142-35.7 251 7.9 281.1 22.1 7.9 3.8 12.3 12.4 10.6 21l-60.4 314.8c-0.7 3.4-3 6.3-6.1 7.7-34.1 15.2-66.2 20.9-95.3 20.9zm-137.1-70.2c18.7 15.6 105.5 79.4 218.6 32l59-307.5c-30.3-14.1-131.6-53.2-263.6-20.5zm3.3-298.1h0.1z"/>
						</g>
					</g>
					<g id="Layer">
						<g id="Layer">
							<path id="Layer" class="s6" d="m2009.1 3431.9c-2.5 7.7-6.9 14.6-13 20-70 62.8-189.1 98.2-300.9 87.7-58.7-5.5-80.5-31.3-87.6-55.5-7-23.8 0.1-45.9 0.1-45.9l399.6-62.7c1.9 3.7 3.3 7.5 4.3 11.3 4.4 16.8 1 34-2.5 45.1z"/>
						</g>
						<g id="Layer">
							<path id="Layer" class="s10" d="m2009.1 3431.9c-2.5 7.7-6.9 14.6-13 20-70 62.8-189.1 98.2-300.9 87.7-58.7-5.5-80.5-31.3-87.6-55.5 15.3 10.1 86.9 51.8 206.9 31.6 136.2-22.8 126-80.9 126-80.9l71.1-48c4.4 16.8 1 34-2.5 45.1z"/>
						</g>
						<g id="Layer">
							<path id="Layer" class="s3" d="m1735.2 3552.1c-13.7 0-27.4-0.6-41-1.9-41.9-3.9-71.2-18.2-87.3-42.4-21.7-32.9-9.9-71.3-9.4-72.9 1.3-3.8 4.6-6.7 8.5-7.3l399.7-62.6c4.5-0.7 9 1.6 11.1 5.6 11.7 22.6 7.8 47.6 2.5 64.5-3 9.4-8.5 18-16 24.7-64.6 57.9-166.4 92.3-268.1 92.3zm-118.7-104.5c-1.8 10.2-3.4 30.9 8.3 48.5 12.4 18.5 36.4 29.6 71.4 32.8 107.2 10.1 224.9-24 292.8-85 4.7-4.1 8.1-9.4 9.9-15.2 2.9-9.3 6.6-26 1.8-41.3z"/>
						</g>
					</g>
					<g id="Layer">
						<g id="Layer">
							<path id="Layer" class="s5" d="m2016.5 3227.5c-0.6 38.1-9.2 148-9.2 148 0 0-62.6 91.5-217.7 112.4-155.1 20.8-181.9-49.7-181.9-49.7-2.6-16.2-3.6-30.6-3.4-43.4 0.3-23.7 5-41.8 11.6-55.7 18.2-38.3 51.5-44.1 51.5-44.1l78.9-57.3c0 0-53.2-131.4 81.1-131.5 129.2-0.1 94.4 149.2 94.4 149.2 0 0 30.9-12.1 48.8-30 17.9-17.9 43.7-26.8 45.7-8.9 0.2 2.1 0.3 5.9 0.2 11z"/>
						</g>
						<g id="Layer">
							<path id="Layer" class="s6" d="m1990.4 3395.1c0 0 0 0-0.1 0l-28.5 24.9-25-28.3-18.7 3.8-48 9.9-20.1-30.8 31.1-6 56.4-13.8 19.3-4.8z"/>
						</g>
						<g id="Layer">
							<path id="Layer" class="s8" d="m2016.5 3227.5c-0.6 38.1-9.2 148-9.2 148 0 0-5.4 7.9-16.9 19.6l-33.6-45.1-19.3 4.8c2.6-18.5-0.1-34.6-0.1-34.6 0 0 12.6 25.8 36.5 22.6 23.8-3.4 39.8-118.7 39.8-118.7 0 0 1 1.2 2.8 3.4z"/>
						</g>
						<g id="Layer">
							<path id="Layer" class="s8" d="m1961.8 3420c-34.7 26.5-90.7 56.9-172.2 67.9-155.1 20.8-181.9-49.7-181.9-49.7-2.6-16.2-3.6-30.6-3.4-43.4 4.2 26 26.3 52.2 95.9 56.6 118.2 7.7 145.9-37.8 140-73.6 9 17.2 26.4 36.9 57.5 28.6 8.4-2.3 15.1-6.1 20.4-10.9l18.7-3.8z"/>
						</g>
						<g id="Layer">
							<path id="Layer" class="s8" d="m1739.9 3171.1c0 0-4 44.4 67 53 70.9 8.6 110-35.1 103.4-76.9 0 0 20.3 84.9 7.8 135.2 0 0-52.1-35.5-76.1-41.3-23.9-5.7-92-4.7-92-4.7 0 0-9.4-40.8-10.1-65.3z"/>
						</g>
						<g id="Layer">
							<path id="Layer" class="s10" d="m1990.4 3395.1c0 0 0 0-0.1 0-7.1 7.2-16.5 15.8-28.5 24.9l-25-28.3-18.7 3.8c12.1-10.7 17.3-26.4 19.4-40.7l19.3-4.8z"/>
						</g>
						<g id="Layer">
							<path id="Layer" class="s3" d="m1961.8 3425c-1.3 0-2.7-0.6-3.7-1.7l-23-26.1-63.7 16.4c-2.4 0.6-4.8-0.6-5.8-2.8-9.8-23-19.1-32.7-19.2-32.8-1.2-1.3-1.6-3.1-1.1-4.8 0.5-1.7 1.8-3 3.6-3.4l103.7-23.9c1.8-0.4 3.7 0.2 4.9 1.6l36.7 44.4c1.7 2.1 1.4 5.2-0.6 6.9-2.1 1.8-5.2 1.5-7-0.6l-34.8-42-93.1 21.4c3.6 5.1 8.8 13.4 14.3 25.4l62.5-16.1c1.8-0.4 3.7 0.2 4.9 1.5l25.1 28.4c1.8 2 1.6 5.1-0.4 6.9-1 0.8-2.1 1.3-3.3 1.3z"/>
						</g>
						<g id="Layer">
							<path id="Layer" class="s7" d="m1912.4 3303.6q-1.5 0-3.1-0.4c-5.6-1.7-8.9-7.7-7.2-13.3 7.1-23.9 9.2-36.1 9.2-36.2 1-5.8 6.5-9.8 12.3-8.8 5.8 0.9 9.7 6.4 8.8 12.3-0.1 0.5-2.3 13.4-9.8 38.8-1.4 4.6-5.6 7.6-10.2 7.6z"/>
						</g>
						<g id="Layer">
							<path id="Layer" class="s3" d="m1735.9 3502.4c-113.7 0-137.1-57.6-138.2-60.4q-0.4-1-0.5-2.1c-20.1-124.1 50.4-150.5 65.5-154.7l70.8-51.5c-6-18.8-17.7-66.7 5.6-101.4 16.5-24.4 46.2-36.8 88.3-36.8q0 0 0.1 0c37.7 0 66.4 12 85.2 35.6 26 32.8 25.7 79.4 22.8 106 9.1-4.8 19.8-11.5 27.5-19.2 14.1-14.1 35.1-25.9 50.4-20.6 7.6 2.7 12.5 9.3 13.5 18 2.1 18.4-7.8 146.5-8.9 161.1-0.1 1.8-0.8 3.6-1.8 5.2-2.7 3.9-67.2 95.6-225.1 116.9-20.4 2.7-38.8 3.9-55.2 3.9zm-117.9-67.3c3.5 6.8 35.5 60.3 170.2 42.2 134.9-18.2 198.2-92.1 208.7-105.7 4.4-56.4 10.1-141.8 8.8-153.9q0-0.2-0.1-0.3c-4-0.4-16.1 4.2-27.5 15.6-19.2 19.2-51 31.8-52.3 32.4-3.7 1.4-7.9 0.7-10.9-1.9-3-2.6-4.4-6.6-3.5-10.5 0.2-0.7 15.6-69.5-15.5-108.7-14.5-18.2-37.5-27.4-68.4-27.4q-0.1 0-0.1 0c-34.6 0-58.3 9.2-70.5 27.3-22.8 33.6-1 88.9-0.7 89.5 1.8 4.5 0.3 9.8-3.7 12.6l-78.9 57.4c-1.3 0.9-2.8 1.6-4.4 1.8-2.8 0.6-69.2 14.4-51.2 129.6z"/>
						</g>
						<g id="Layer">
							<g id="Layer">
								<path id="Layer" class="s6" d="m1667.3 3295c0 0 99.4-35 182.7 79.5 5.8 8 16.5 11.1 25.4 7 7.2-3.3 14.5-10.5 18.1-25.3 0 0 22.7 4.3 35.4-13.8 4.2-6 4.4-14 1.2-20.6-10.7-22.2-43.4-76-112-86.4-86.8-13.3-91.4 20.5-91.4 20.5 0 0-50.4-2.6-59.4 39.1z"/>
							</g>
							<g id="Layer">
								<path id="Layer" class="s3" d="m1893.5 3366.8c-4.1 0-8.1-2.4-9.8-6.5-44.1-104.8-151.3-94.3-155.8-93.8-5.8 0.7-11.2-3.5-11.8-9.4-0.7-5.8 3.5-11.1 9.4-11.8 1.2-0.1 127.5-13.1 177.9 106.7 2.3 5.5-0.3 11.7-5.7 14-1.4 0.6-2.8 0.8-4.2 0.8z"/>
							</g>
							<g id="Layer">
								<path id="Layer" class="s3" d="m1867 3394c-9.8 0-19.5-4.7-25.7-13.2-77.3-106.2-166.7-77-170.4-75.7-3.7 1.3-7.7 0.5-10.6-2.1-2.9-2.6-4.2-6.5-3.4-10.2 7.6-35.6 41-46.3 62.7-47.5 2-3.3 5.1-7 9.8-10.6 17.5-13 47.9-16.4 90.3-9.9 73.5 11.2 108.4 68.3 120.1 92.3 5 10.4 4.1 22.4-2.2 31.4-10.7 15.3-26.3 18.5-36.4 18.8-5.5 13.9-14.3 20.7-21.3 23.9-4.1 1.9-8.5 2.8-12.9 2.8zm-163.6-114.4c39.2 0 101 14.2 155.2 88.7 2.9 4 8.1 5.4 12.3 3.5 5.9-2.7 10-8.8 12.2-18.2 1.4-5.5 6.8-9 12.5-7.9 0.5 0.1 16.1 2.7 24.5-9.4 1.9-2.7 2-6.5 0.4-9.9-10.1-20.9-40.6-70.8-104-80.5-59.2-9-77.1 5.1-79.3 11.7-0.1 2.8-1.3 4.8-3.3 6.8-2.1 1.9-4.9 2.3-7.8 2.2-1.3-0.1-25.8-1-39.7 13.9 5-0.5 10.7-0.9 17-0.9z"/>
							</g>
							<g id="Layer" style="opacity: .5">
								<path id="Layer" class="s1" d="m1719.7 3270.8c0 0 85.5 1.4 139.9 75.3 0 0-24.6-90.2-139.9-75.3z"/>
							</g>
							<g id="Layer" style="opacity: .5">
								<path id="Layer" class="s1" d="m1808.3 3253.7c0 0 61.2 9.1 93.2 67.3 0 0-9-67-93.2-67.3z"/>
							</g>
						</g>
					</g>
					<g id="Layer">
						<g id="Layer">
							<path id="Layer" class="s6" d="m2715.2 2347.2l-258.3 131.9c-4.4 2.3-9.7 1.8-13.6-1.2-3.4-2.6-8-6.2-13.4-10.6-25.9-20.8-71.4-59.8-100.9-98.7-1.2-1.6-2-3.4-2.4-5.5-0.2-1.4-0.4-3.3-0.4-5.4 0-10.3 11.9-16.2 20.3-10.2 2.3 1.5 4.9 2.4 7.5 2.4 2.4 0 4.8-0.7 7-2 7.6-5 21-13.4 38.7-23.6 56.2-32.6 155.7-84.1 252.4-103.7 4.2-0.8 8.5 0.4 11.5 3.4 12.2 11.8 42.9 46.5 58.2 108.6 1.5 5.8-1.2 11.9-6.6 14.6z"/>
						</g>
						<g id="Layer">
							<path id="Layer" class="s11" d="m2490.9 2434.1l-61 33.2c-25.9-20.8-71.4-59.8-100.9-98.7-1.2-1.6-2-3.4-2.4-5.5-0.2-1.4-0.4-3.3-0.4-5.4 0-10.3 11.9-16.2 20.3-10.2 2.3 1.5 4.9 2.4 7.5 2.4 2.4 0 4.8-0.7 7-2 7.6-5 21-13.4 38.7-23.6 0 0 16.3 38.2 45.1 58.6 28.8 20.4 46.1 51.2 46.1 51.2z"/>
						</g>
						<g id="Layer" style="opacity: .5">
							<path id="Layer" class="s1" d="m2433.8 2307.8c0 0 67.3-28.1 94.3-8.6 27 19.6 15.1 83.7 15.1 83.7l129.2-61.2c0 0-45.7 0-55.7-47.2-6.6-31.6 15.9-54.2 15.9-54.2 0 0-146.1 41.8-198.8 87.5z"/>
						</g>
						<g id="Layer">
							<path id="Layer" class="s3" d="m2451.1 2491.2c-5.1 0-10.2-1.6-14.4-4.8-23-17.8-80.5-64.2-116.2-111.3-2.2-3.1-3.8-6.6-4.4-10.2q-0.6-3.5-0.6-7.2c0-8.7 4.9-16.6 12.7-20.7 7.9-4 17.3-3.4 24.5 1.8 0.8 0.5 1.7 0.5 2.5 0.1 36.9-23.7 167.2-103 294.8-128.8 7.7-1.5 15.5 0.8 21.1 6.2 13.1 12.7 45.2 49.2 61.1 113.7 2.6 10.7-2.3 21.7-12.1 26.7l-258.3 131.9c-3.4 1.8-7 2.6-10.7 2.6zm-112-135.5c-0.5 0-0.9 0.2-1.1 0.3-1.1 0.6-1.1 1.4-1.1 1.7q0 1.9 0.3 3.7c0 0.3 0.2 0.6 0.4 0.8 35.1 46.3 94.7 93.8 112.2 107.2 0.6 0.5 1.5 0.6 2.3 0.2l258.2-131.9c0.9-0.5 1.4-1.6 1.2-2.6-14.6-59.1-43.5-92-55.3-103.4-0.5-0.6-1.2-0.8-1.9-0.6-124 25-251.5 102.6-287.6 125.7q0 0 0 0c-8.1 5.2-18.5 5-26.4-0.6-0.4-0.3-0.8-0.5-1.2-0.5zm21.8-7.9h0.1z"/>
						</g>
					</g>
					<g id="Layer">
						<g id="Layer">
							<path id="Layer" class="s5" d="m2887.2 2460c-5.2 5-12 9.2-20.9 11.9-45.8 13.9-144.2 8.9-144.2 8.9 9.2 14.7 42 39.5 66 56.4 17.8 12.6 12.7 40.7-8.6 45.6-28.1 6.5-64.4-5.3-93.2-18.3-24.8-11.2-43.9-23.4-47.2-25.5 0-0.1 0 0 0 0q-0.2-0.1-0.3-0.2c0 0 0 0-0.1-0.1-0.1 0-0.1 0-0.1 0-77.5 49.9-164 15.7-164 15.7-14.6 27.5-30.5 40.1-44.4 43.4h-0.1c-25.9 6-45.5-20.2-39-43.4 9.9-35.8 21.9-96.4 21.9-96.4 40.7-79.6 77.5-82.6 109.3-95.5 22.8-9.2 82.4-46.1 114.3-66.2 17.9-11.3 40.7 4.7 35.9 25.3q-0.1 0.2-0.1 0.2c32-14.6 67.4-29.8 91.3-40 17.1-7.2 35.9 6.4 34.2 25-4.5 49.9-58.9 86.5-58.9 86.5 50.9 9 96 11.6 125.9 12.3 28 0.5 42.5 35 22.3 54.4z"/>
						</g>
						<g id="Layer" style="opacity: .2">
							<path id="Layer" class="s3" d="m2796.8 2560c-7.6 12.6-32.8 24.6-74.6 13.9-25.3-6.5-50.6-18.1-66.7-26.1 8.3 4.4 19 10.2 30.8 16.7-24.8-11.2-43.9-23.4-47.2-25.5 0-0.1 0 0 0 0q-0.2-0.1-0.3-0.2c0 0 0 0-0.1-0.1-0.1 0-0.1 0-0.1 0-77.5 49.9-164 15.7-164 15.7-14.6 27.5-30.5 40.1-44.4 43.4h-0.1c-35.5-14 3.1-80.2 24.3-80.2 21.2 0 120.7-18.9 120.7-18.9 48.4 7.6 84.8-9.6 84.8-9.6 0 0 41.7 22.5 69.5 41.8 27.9 19.2 67.4 29.1 67.4 29.1z"/>
						</g>
						<g id="Layer">
							<path id="Layer" class="s8" d="m2643.2 2371c0 0 34.2-56.7 22.8-59.7-11.5-3-18.4 0-61.7 47.2-30.8 33.7-81.9 57.8-108.7 68.8-7.1 3-5.9 13.6 1.7 14.7 9.1 1.3 22 1.3 40.3-2.2 48.3-9.2 96.1-1.8 119.9-5.7 23.9-4 64.6-25.9 98.4-57.5 33.8-31.5 40.9-62 40.9-62 0 0-2.1-28.1-26.4-8.3-24.4 19.9-113.5 79.5-153.7 98.5 0 0 21.2-24.6 26.5-33.8z"/>
						</g>
						<g id="Layer">
							<path id="Layer" class="s8" d="m2695.2 2417.4c0 0 27.4 7.7 92.1 10.7 64.6 3 80-0.1 86.9 11.2 7 11.2-7.4 28.6-57.6 36.5-50.2 8-100.9 4.7-100.9 4.7 0 0-26-29.7-53.8-40.3-27.7-10.6 33.3-22.8 33.3-22.8z"/>
						</g>
						<g id="Layer">
							<g id="Layer">
								<path id="Layer" class="s3" d="m2472.6 2543.9c40.4-5.6 83.6-21 109-54.8-4.9 9.5-11.3 18.5-18.9 26.5-15.4 15.8-34.4 27.9-54.5 37.3-10.2 4.6-20.2 8.7-31.6 12-5.7 1.6-11.7-1.7-13.3-7.4-1.9-6.4 2.7-13.1 9.3-13.6z"/>
							</g>
							<g id="Layer">
								<path id="Layer" class="s3" d="m2508 2442.9c67.2-21.8 130.1-53.5 154.3-124.5 1.9-5.8 8.1-8.8 13.8-6.8 5.5 2 8.3 8 6.5 13.5-4.5 13.7-10.8 26.7-18.6 38.9-23.5 35.7-61.2 60.4-101.3 73.3-17.6 5.6-36 9-54.5 7.8-1.2 0-1.5-1.9-0.2-2.2z"/>
							</g>
							<g id="Layer">
								<path id="Layer" class="s3" d="m2517.9 2441.2c32.2-12.4 66.3-16.9 100.6-17.7 35.2-1.4 74.1 15.3 91 47-28.1-17.9-58-26.8-90.7-25.7-16.5 0.3-33.1 0.5-49.8 0.6-16.8-0.1-33.6-0.3-50.7-1.7-1.3 0-1.7-2-0.4-2.5z"/>
							</g>
							<g id="Layer">
								<path id="Layer" class="s3" d="m2624.9 2445.3c-6 0-9.4-0.5-9.9-0.6-5.8-0.9-9.8-6.4-8.8-12.3 1-5.8 6.5-9.7 12.2-8.8 0.8 0.1 45.6 6 114.8-39.2 4.9-3.2 11.6-1.9 14.8 3.1 3.2 4.9 1.8 11.5-3.1 14.8-58.3 38.1-101.5 43-120 43z"/>
							</g>
						</g>
						<g id="Layer">
							<path id="Layer" class="s3" d="m2422.6 2609.2c-6.8 0-12.2-1.6-15.2-2.8-20.8-8.3-32.7-32.9-26.6-54.9 9.7-35 21.6-95 21.7-95.6q0.3-1.5 1-2.8c37.1-72.6 73.2-85.4 102.1-95.8 4.3-1.5 8.5-3 12.7-4.7 16-6.5 57-30.3 112.6-65.4 11.9-7.4 27-7 38.4 1.1 6.3 4.5 10.7 10.5 12.9 17.3 28-12.5 56.8-24.9 77.3-33.6 11.6-4.9 24.6-3.4 34.7 4 10.1 7.4 15.5 19.2 14.4 31.7-3.2 34.4-26.8 62.5-44.4 78.8 40.9 5.9 76.6 7.9 100.9 8.4 17.4 0.3 32.8 11.1 39.2 27.5 6.3 16.1 2.5 33.5-9.8 45.3-6.7 6.5-15.2 11.4-25.1 14.4-32.6 9.9-89.1 10.7-122 10.2 11.1 9.9 27.2 22.3 46.8 36.2 11.9 8.4 17.5 22.5 14.7 36.8-2.8 14-13.1 24.8-27 27.9-50.7 11.7-122.4-29.1-143.3-41.9-65.7 38.8-134.8 23.4-159 16-20.7 34.6-42.3 41.9-57 41.9zm0.5-147.7c-1.9 9.7-12.5 62.7-21.7 95.7-3.2 11.6 3.1 25.1 13.9 29.4 15.3 6.1 34.4-8.2 49.9-37.2 2.5-4.8 8.3-7 13.3-5 0.8 0.4 82.5 31.5 154.4-14.7 3.5-2.3 8.1-2.3 11.6 0 0.8 0.6 82.8 54.2 132.6 42.7 5.6-1.3 9.7-5.5 10.8-11.3 1.2-6-1.1-11.7-6-15.2-37.7-26.6-60.8-46.6-68.8-59.4-2.1-3.4-2.2-7.7-0.2-11.1 2-3.4 5.8-5.4 9.8-5.3 0.9 0.1 97.1 4.8 140.5-8.5 6.6-2 12.2-5.1 16.5-9.3 6.1-5.8 7.8-14.1 4.7-22.1-2.6-6.6-9.1-13.8-19.7-14-29.5-0.6-75.6-3.2-127.5-12.4-4.3-0.7-7.7-4-8.6-8.2-0.9-4.3 0.9-8.7 4.5-11.1 0.5-0.4 50.2-34.5 54.2-78.7 0.4-5-1.6-9.6-5.7-12.5-4.1-3-9.1-3.6-13.7-1.6-23.9 10.1-59.2 25.3-91 39.8-3.8 1.7-8.2 1.1-11.3-1.6-3.2-2.6-4.5-6.9-3.5-10.8 1.8-7.7-3.5-12.2-5.1-13.4-1.7-1.2-7.8-4.7-14.7-0.4-33.3 21-92.6 57.6-116 67.1-4.4 1.8-8.9 3.4-13.5 5.1-27.9 9.9-56.6 20.1-89.7 84z"/>
						</g>
					</g>
					<g id="Layer">
						<g id="Layer">
							<path id="Layer" class="s6" d="m1863.2 2631.9c0 0 30.8 128.3 66.6 222.7 0 0 34.8 3 75.6-12.9 0 0-59.7-108.4-82.6-213.8 0 0-21.8-2.9-59.6 4z"/>
						</g>
						<g id="Layer" style="opacity: .6">
							<path id="Layer" class="s1" d="m1915 2813.1c0 0-1.4-31.7 15.8-43 17.2-11.3 47.7 17.2 47.7 17.2l-35-87c0 0-4.1 24.1-20.7 28.1-16.5 3.9-36.7-9.8-36.7-9.8z"/>
						</g>
						<g id="Layer">
							<path id="Layer" class="s3" d="m1937.1 2865.5c-4.9 0-7.8-0.2-8.2-0.2-4.1-0.4-7.6-3.1-9.1-6.9-35.6-94-66.7-222.7-67-224-0.7-2.8-0.2-5.8 1.4-8.3 1.6-2.5 4.2-4.2 7.1-4.7 39-7.2 62-4.2 63-4 4.4 0.6 8 3.9 9 8.3 22.3 102.6 80.8 209.8 81.4 210.8 1.5 2.7 1.7 5.9 0.7 8.8-1 2.9-3.3 5.2-6.2 6.3-31.1 12.2-58.9 13.9-72.1 13.9zm-60.8-224.9c8.1 32.2 33 127.8 61 203.5 9.8 0 29.8-1.1 52.8-8.4-15.3-29.5-56.2-113-75.9-197.6-7.5-0.3-20.4 0-37.9 2.5z"/>
						</g>
					</g>
				</g>
			</g>
		</g>
	</g>
</svg>